<?xml version="1.0" encoding="UTF-8" standalone="no"?>
<!-- Created with Inkscape (http://www.inkscape.org/) -->

<svg
   width="72.112656mm"
   height="57.25948mm"
   viewBox="0 0 72.112656 57.25948"
   id="svg1"
   xmlSpace="preserve"
   version="1.1"
   xmlns="http://www.w3.org/2000/svg">
  <defs
     id="defs1" />
  <g
     id="layer1"
     transform="translate(-47.019914,-109.88987)">
    <path
       id="path1"
       style="fill:#000000;stroke:#000000;stroke-width:0.1;stroke-linejoin:round;stroke-dasharray:none;stroke-opacity:1"
       d="m 63.826002,110.12484 c -0.15619,-0.002 -0.469964,-0.0829 -0.628575,-0.0845 -0.188933,-0.0667 -0.149145,0.0244 -0.294412,0.0238 -0.06727,0.026 -0.44787,-0.0522 -0.657533,-0.0509 -0.185024,-0.0504 -0.334164,-0.0329 -0.487124,-0.0304 -0.184501,-0.0329 -0.311848,0.003 -0.467159,0.008 -0.166933,0.002 -0.29206,0.0316 -0.457153,0.0389 -0.140465,0.0287 -0.39997,-0.0539 -0.578212,-0.0429 -0.197446,-0.0616 -0.235898,0.0486 -0.389084,0.0611 -0.117938,0.0435 -0.377011,0.0334 -0.565547,0.0535 -0.165054,0.018 -0.293077,0.0581 -0.458056,0.0796 -0.137817,0.0439 -0.3459,0.05 -0.520757,0.0775 -0.15919,0.0278 -0.321662,0.0546 -0.484886,0.0849 -0.156571,0.031 -0.376279,-0.0781 -0.537929,-0.0431 -0.205382,-0.10739 -0.350418,-0.0139 -0.502879,0.0256 -0.195948,-0.0439 -0.242244,0.0868 -0.39305,0.13399 -0.110953,0.0581 -0.344921,0.11817 -0.516677,0.18249 -0.14767,0.0605 -0.296217,0.12109 -0.444718,0.18505 -0.141798,0.0674 -0.281261,0.13824 -0.42522,0.20857 -0.131737,0.078 -0.08088,0.15452 -0.220945,0.23118 0.02255,0.11063 -0.393178,0.0418 -0.580043,0.15178 -0.174671,-0.0745 -0.282834,0.19362 -0.43037,0.29774 -0.11121,0.0983 -0.247496,0.19151 -0.37241,0.29008 -0.114572,0.10244 -0.120003,0.24453 -0.237379,0.34565 -0.0091,0.16228 -0.275697,0.20437 -0.417392,0.31311 -0.128673,0.0793 -0.251072,0.18704 -0.366773,0.28934 -0.125074,0.11058 -0.254178,0.19937 -0.347917,0.31244 -0.110398,0.13315 -0.234819,0.23539 -0.323941,0.37631 -0.118042,0.11186 -0.184977,0.21378 -0.256525,0.36853 -0.09007,0.0881 -0.160381,0.33424 -0.216269,0.51641 -0.06284,0.1443 -0.0938,0.31893 -0.126544,0.4855 -0.0361,0.15693 -0.08096,0.20807 -0.09924,0.37473 -0.04652,0.0814 0.09741,0.44667 0.09273,0.6559 0.128261,0.19331 0.02569,0.33106 0.02571,0.4849 0.03074,0.18467 0.05841,0.35937 0.06051,0.51779 0.05944,0.19798 0.128913,0.3239 0.13006,0.4766 0.126889,0.18359 -0.05116,0.26108 -0.06054,0.42595 -0.05643,0.10719 0.02583,0.39615 0.02245,0.58728 0.04142,0.18316 -0.05215,0.14729 -0.05777,0.29985 -0.0061,0.16405 0.0458,0.50666 0.06345,0.66299 0.01815,0.16081 0.12831,0.32448 0.146497,0.48533 0.109676,0.15937 0.0021,0.27306 0.01964,0.42961 -0.01358,0.13528 0.1017,0.39413 0.121173,0.56953 0.07852,0.18793 0.0086,0.26216 0.02434,0.4066 -0.0047,0.144 0.02844,0.33224 0.04678,0.50302 0.0089,0.15525 -0.01781,0.18334 -4.58e-4,0.34787 -0.03077,0.0651 0.0099,0.35953 0.03169,0.57088 -0.01556,0.12037 -0.0054,0.24535 0.01321,0.42853 -0.02253,0.0816 0.02425,0.31337 0.04453,0.51622 0.0024,0.10045 0.02873,0.20708 0.0476,0.39938 0.01205,0.0427 0.03947,0.35646 0.06052,0.57722 0.01464,0.10593 0.04034,0.37972 0.05783,0.56893 0.0195,0.16338 0.218847,0.35755 0.233233,0.51791 0.202392,0.1816 0.102427,0.30068 0.114345,0.44439 0.09008,0.16929 0.0041,0.099 0.01563,0.25458 -0.0038,0.0201 0.02768,0.45686 0.04212,0.6915 0.005,0.15645 0.06223,0.3624 0.0711,0.52786 0.0507,0.18347 0.0089,0.29303 0.0157,0.44379 8.5e-4,0.15702 0.112091,0.35825 0.118245,0.52342 0.103484,0.18076 0.01208,0.30436 0.01607,0.45636 0.0059,0.16308 0.11164,0.3485 0.114118,0.51097 0.106426,0.17885 -7.4e-4,0.30467 -7.18e-4,0.45954 -0.0042,0.15963 -0.03603,0.27263 -0.03833,0.43732 -0.03737,0.12384 0.05092,0.38887 0.04649,0.57022 0.05322,0.18088 0.0084,0.3233 0.0027,0.4772 0.01109,0.17284 0.02302,0.34403 0.01522,0.50113 0.02813,0.18266 0.04204,0.35036 0.03222,0.50298 0.04885,0.19379 0.10306,0.34196 0.09042,0.49039 0.110828,0.19816 -0.07133,0.19596 -0.09079,0.34884 -0.06583,0.0795 -0.03861,0.4022 -0.06676,0.59933 -0.0089,0.16726 -0.07799,0.25217 -0.101362,0.40783 -0.05841,0.11343 0.08229,0.36967 0.06087,0.54773 0.11241,0.1829 0.07676,0.3764 0.0418,0.53646 0.09331,0.21269 -0.105254,0.23387 -0.168304,0.37791 -0.06329,0.14457 -0.133136,0.34335 -0.139966,0.49522 -0.0075,0.16719 0.05827,0.34104 0.04595,0.50752 0.06342,0.17379 -0.036,0.31665 -0.05334,0.48267 -0.02666,0.15493 -0.04371,0.17876 -0.06661,0.34952 -0.03453,0.0539 -0.0544,0.44185 -0.09115,0.66029 -0.01939,0.16828 -0.01361,0.34826 -0.04487,0.51077 0.01252,0.18219 -0.07822,0.26477 -0.112624,0.42332 -0.05377,0.12539 -0.103144,0.31393 -0.146112,0.49219 -0.06526,0.13046 0.04689,0.39832 0.0018,0.57155 0.09125,0.20895 -0.09989,0.28084 -0.144727,0.4367 -0.0649,0.13718 -0.121999,0.30851 -0.17455,0.47708 -0.07446,0.13684 -0.106149,0.32975 -0.160717,0.49561 -0.05359,0.15721 -0.09958,0.31795 -0.154133,0.47674 -0.04832,0.15884 -0.06925,0.32341 -0.125833,0.48163 -0.01642,0.16654 -0.163963,0.21041 -0.224413,0.36967 -0.116195,0.0712 -0.140066,0.30088 -0.208758,0.48643 -0.06666,0.10864 0.009,0.39662 -0.05472,0.57515 0.07971,0.2067 -0.128526,0.16399 -0.197844,0.31982 -0.08745,0.0287 -0.168677,0.36044 -0.253356,0.56382 -0.06858,0.13663 -0.132245,0.3248 -0.194179,0.48354 -0.06588,0.16887 0.0061,0.38452 -0.04948,0.5205 -0.06009,0.14698 -0.140061,0.2699 -0.201005,0.41752 -0.08223,0.12786 -0.02759,0.35737 -0.09093,0.51037 0.03842,0.1975 -0.133748,0.27538 -0.194203,0.42088 -0.07632,0.13654 -0.145441,0.11748 -0.2084,0.26949 -0.102025,0.0136 -0.210537,0.32999 -0.292263,0.53154 -0.112454,0.095 0.01737,0.34707 -0.04813,0.51355 0.08638,0.17946 -0.03436,0.36228 -0.09759,0.52645 0.03525,0.18709 -0.09355,0.31961 -0.151118,0.47151 -0.03383,0.16599 -0.06886,0.31498 -0.124408,0.46448 -0.0126,0.16831 -0.08747,0.3239 -0.142649,0.47571 -0.02929,0.1692 -0.102015,0.30103 -0.154581,0.44943 -0.04833,0.15557 0.01487,0.33117 -0.03682,0.48227 0.06775,0.18497 0.0096,0.34303 -0.04242,0.49857 0.06401,0.18625 0.02704,0.31027 -0.02396,0.4642 0.0756,0.16662 0.07244,0.35401 0.01776,0.51837 0.127343,0.18909 -0.06285,0.36414 -0.119277,0.52769 -0.0023,0.18143 -0.07206,0.31181 -0.122776,0.45606 -0.02216,0.16705 -0.111844,0.27909 -0.162358,0.42303 -0.06132,0.13692 -0.116218,0.25689 -0.165188,0.40366 -0.06476,0.11562 -0.04388,0.34758 -0.08935,0.50165 0.01474,0.18053 -0.06495,0.29034 -0.102239,0.42887 -0.02312,0.15733 -0.111766,0.18563 -0.145005,0.3297 -0.07566,0.0689 -0.07614,0.34192 -0.09877,0.52652 -0.02375,0.14503 -0.03304,0.31342 -0.03788,0.47476 -0.0066,0.15709 -0.02978,0.26035 -0.01954,0.42019 0.01055,0.16466 0.05677,0.38874 0.08294,0.5451 0.02757,0.16474 0.0752,0.33945 0.111791,0.50107 0.05094,0.16813 0.05382,0.28785 0.09745,0.44137 0.02641,0.14378 0.141107,0.36422 0.198249,0.52807 0.09012,0.17165 0.144616,0.31491 0.200456,0.45281 0.09792,0.17035 0.189091,0.31903 0.250279,0.4517 0.133048,0.17273 0.115752,0.24523 0.177912,0.3661 0.07307,0.14309 0.324297,0.30775 0.405362,0.44748 0.235402,0.13003 0.15398,0.23539 0.220502,0.34104 0.106225,0.14677 0.145127,0.23077 0.229997,0.35343 0.07914,0.1183 0.191307,0.27076 0.293968,0.4045 0.09474,0.12437 0.200463,0.25457 0.30556,0.37869 0.103592,0.12204 0.229048,0.2599 0.339338,0.3782 0.122174,0.12823 0.207128,0.21418 0.317374,0.32211 0.112569,0.10677 0.234127,0.20107 0.358358,0.31126 0.121383,0.0847 0.229605,0.14205 0.362828,0.24891 0.116833,0.0353 0.30047,0.23248 0.452608,0.34236 0.136691,0.0967 0.25653,0.17887 0.391635,0.26776 0.132445,0.0846 0.261384,0.1318 0.405407,0.21749 0.132563,0.0419 0.294404,0.16457 0.451965,0.24905 0.136737,0.0665 0.434083,0.17684 0.588308,0.25122 0.243753,0.0728 0.215298,0.0775 0.326457,0.12742 0.149725,0.0424 0.383765,0.18631 0.541443,0.25008 0.199877,0.10111 0.213358,0.007 0.341637,0.0524 0.133566,-0.0312 0.508476,0.17875 0.690723,0.23728 0.262004,0.089 0.224843,0.0708 0.330309,0.1006 0.168827,0.0483 0.32054,0.0848 0.479588,0.1171 0.161667,0.0326 0.334686,0.0607 0.50749,0.0806 0.158524,0.0182 0.314491,0.0276 0.494829,0.0359 0.163948,0.008 0.350491,0.0337 0.514346,0.0386 0.178854,0.0247 0.316096,0.0116 0.472209,0.014 0.166352,0.006 0.320752,-0.21689 0.483274,-0.21675 0.159951,-0.22055 0.330332,5.6e-4 0.494633,-0.001 0.1639,-5.7e-4 0.286735,-0.0596 0.448958,-0.0635 0.13688,-0.0589 0.370884,0.009 0.545554,0.003 0.177246,0.0128 0.380401,0.0247 0.536128,0.0176 0.209409,0.0301 0.266632,-0.029 0.407085,-0.0366 0.152863,-0.0246 0.322202,-0.0615 0.489372,-0.0721 0.153557,-0.0532 0.319533,-0.094 0.485316,-0.10585 0.152727,-0.084 0.30104,-0.0622 0.465874,-0.0752 0.142339,-0.0514 0.419965,-0.01 0.591012,-0.0243 0.215366,0.006 0.285359,-0.0199 0.422811,-0.0323 0.169817,-0.0105 0.356179,4.1e-4 0.515548,-0.0147 0.188773,0.0151 0.450832,0.008 0.602204,-0.007 0.263343,0.0255 0.200808,-0.0664 0.3161,-0.0782 0.141451,-0.0609 0.339607,-0.0419 0.510761,-0.0601 0.160684,-0.0238 0.361311,-0.0275 0.524954,-0.0454 0.185929,-0.009 0.362699,-0.0128 0.514772,-0.0298 0.202934,0.005 0.457011,-0.0204 0.601503,-0.0368 0.276063,-2.5e-4 0.329852,0.0224 0.438072,0.01 0.240897,0.0324 0.307141,0.003 0.434521,-0.0119 0.199251,0.0152 0.395445,0.0146 0.542357,-0.003 0.232687,0.0335 0.230848,-0.0732 0.362404,-0.0891 0.139382,-0.0625 0.448136,-0.0292 0.619806,-0.0501 0.232931,-0.003 0.215276,-0.13408 0.344414,-0.14984 0.12969,-0.12368 0.315744,-0.0878 0.488473,-0.10839 0.140559,-0.0661 0.372082,-0.0399 0.543251,-0.0593 0.182493,-0.0169 0.422357,-0.0247 0.575727,-0.0414 0.240501,-0.004 0.242809,-0.0442 0.368036,-0.0573 0.157215,-0.0345 0.346405,-0.0203 0.511281,-0.0363 0.17407,-0.002 0.274266,-0.19476 0.432379,-0.20887 0.130771,-0.18017 0.346588,-0.0309 0.520122,-0.0435 0.16361,-0.0133 0.360055,0.004 0.524628,-0.006 0.185045,0.0175 0.337731,0.008 0.491926,8.5e-4 0.183604,0.0174 0.279352,-0.0516 0.433667,-0.0564 0.143805,-0.0445 0.364036,0.004 0.537857,0.002 0.174991,0.0116 0.313903,-0.006 0.472311,-0.006 0.16179,-0.003 0.377145,0.0328 0.542033,0.0352 0.195375,0.0338 0.37953,0.007 0.526588,0.0103 0.220768,0.005 0.233241,-0.0726 0.367533,-0.0679 0.14047,-0.0737 0.369878,0.0251 0.547606,0.0364 0.173111,0.0201 0.366931,0.0598 0.525483,0.0731 0.196195,0.0502 0.330897,0.0305 0.475536,0.0436 0.19098,0.0193 0.396664,0.0793 0.545334,0.0939 0.230216,0.0648 0.253436,-0.005 0.38032,0.006 0.158723,-0.0154 0.327435,-0.0312 0.496413,-0.0121 0.155976,-0.0435 0.324655,-0.0464 0.499111,-0.007 0.154284,0.0348 0.310261,0.16534 0.479718,0.18947 0.164617,0.0234 0.377386,0.0679 0.541647,0.0934 0.19588,0.0428 0.31895,0.0602 0.466114,0.0845 0.179544,0.0394 0.304917,-0.0974 0.459948,-0.0704 0.168756,-0.11901 0.381391,0.0798 0.555478,0.11223 0.184776,0.0463 0.30341,0.054 0.455236,0.0837 0.163154,0.0287 0.27961,-0.0444 0.443205,-0.0112 0.137817,-0.0713 0.361557,0.0109 0.547419,0.0507 0.160625,-0.0292 0.345035,0.077 0.516021,0.1152 0.164553,0.0391 0.317089,0.0666 0.47859,0.10373 0.158699,0.0317 0.304402,0.0474 0.469079,0.0861 0.147077,0.0116 0.348096,0.0834 0.520318,0.12445 0.164343,0.0404 0.329717,0.0797 0.490148,0.11802 0.167652,0.041 0.325814,0.0777 0.484382,0.11536 0.167546,0.0396 0.333726,0.0811 0.49241,0.11825 0.172599,0.0424 0.393695,0.1227 0.549686,0.1583 0.21453,0.0804 0.2614,-0.004 0.393414,0.0251 0.164591,-0.0269 0.331218,0.068 0.498701,0.10362 0.159654,0.0298 0.341249,0.0786 0.505472,0.11202 0.170812,0.0415 0.284659,0.0223 0.442772,0.0524 0.143503,-0.008 0.350268,0.0648 0.527107,0.0967 0.162271,0.028 0.339494,0.0675 0.504439,0.0948 0.171503,0.0358 0.298389,-0.001 0.458911,0.0216 0.151461,-0.028 0.361166,0.0583 0.537703,0.0838 0.173773,0.0303 0.322671,0.0457 0.483804,0.0649 0.166934,0.0203 0.309221,0.004 0.476373,0.017 0.167559,0.0127 0.357892,0.052 0.527398,0.0549 0.159279,0.003 0.333329,0.0152 0.492543,0.01 0.169553,0.009 0.308162,-0.0155 0.46224,-0.0284 0.158126,-0.0148 0.355534,-0.0274 0.513744,-0.049 0.183879,-0.0165 0.428837,-0.0321 0.57299,-0.0593 0.252782,-0.0103 0.334683,-0.0296 0.445407,-0.0563 0.234633,-0.0145 0.345051,-0.0138 0.463743,-0.052 0.233562,0.007 0.280444,-0.0901 0.404181,-0.1487 0.156507,-0.0613 0.277318,-0.21465 0.414124,-0.29867 0.120609,-0.14441 0.390894,-0.0959 0.525746,-0.16307 0.131685,-0.0656 0.111936,-0.32452 0.263558,-0.40809 0.133971,-0.0739 0.342467,-0.10504 0.486318,-0.18022 0.200919,-0.0236 0.415118,-0.13111 0.551079,-0.19583 0.258225,-0.0457 0.239238,-0.0854 0.346535,-0.13096 0.16638,-0.0451 0.329173,-0.10945 0.469323,-0.15186 0.17979,-0.0353 0.27336,-0.0711 0.40435,-0.0856 0.15426,-0.0157 0.29867,-0.11879 0.44597,-0.085 0.15327,-0.0705 0.53798,0.14382 0.69462,0.28376 0.12533,0.11196 -0.006,0.19276 0.12204,0.3397 0.10999,0.12654 0.29758,0.27668 0.42154,0.36917 0.17226,0.11792 0.19521,0.12463 0.30365,0.1791 0.12703,0.0537 0.28184,0.12085 0.43037,0.1601 0.14208,0.0354 0.31925,0.0791 0.47018,0.0926 0.16856,0.0288 0.29953,0.0189 0.44318,0.012 0.16356,-0.003 0.46659,-0.0214 0.61497,-0.0457 0.28541,-0.0162 0.17987,-0.10051 0.26578,-0.12779 0.13254,-0.0421 0.27842,-0.0386 0.46062,-0.0886 0.15568,-0.0427 0.30802,-0.12902 0.46468,-0.16786 0.15079,-0.0842 0.29521,-0.12092 0.45063,-0.15584 0.14477,-0.0821 0.31262,-0.0932 0.47283,-0.12576 0.15246,-0.056 0.33781,-0.0596 0.49753,-0.09 0.17201,-0.0256 0.30049,-0.0633 0.45263,-0.0928 0.15453,-0.0363 0.3864,-0.0551 0.54524,-0.0885 0.20692,-0.0218 0.41753,-0.0226 0.55096,-0.056 0.26815,0.006 0.23195,-0.096 0.33983,-0.13632 0.14679,-0.0857 0.28146,-0.14642 0.43351,-0.21047 0.13956,-0.0588 0.44086,-0.0635 0.60613,-0.13628 0.14922,-0.0658 0.39669,-0.10431 0.54638,-0.16834 0.22332,-0.0275 0.32195,-0.0692 0.4469,-0.12226 0.20588,-0.0195 0.43232,-0.0938 0.56564,-0.1509 0.27044,-0.0254 0.19302,-0.11573 0.29788,-0.1618 0.13321,-0.0912 0.36116,-0.0928 0.51041,-0.16092 0.19659,-0.0218 0.27879,-0.1243 0.41409,-0.18963 0.15052,-0.068 0.41234,-0.13117 0.55597,-0.20543 0.23632,-0.0478 0.2502,-0.11993 0.36288,-0.18288 0.159,-0.0763 0.40153,-0.11215 0.53582,-0.19497 0.24488,-0.0277 0.19867,-0.21355 0.31172,-0.29313 0.0951,-0.15605 0.24739,-0.20583 0.37506,-0.30381 0.11363,-0.11572 0.36799,-0.15295 0.495,-0.25649 0.22743,-0.0477 0.25152,-0.17797 0.35738,-0.28194 0.14222,-0.0975 0.21853,-0.34563 0.32752,-0.47147 0.0902,-0.22203 0.17247,-0.24947 0.2751,-0.34041 0.11561,-0.10244 0.25633,-0.21487 0.39083,-0.351 0.10156,-0.10279 0.20791,-0.20471 0.31219,-0.31053 0.10684,-0.10354 0.30675,-0.18931 0.41033,-0.29874 0.19139,-0.075 0.16602,-0.22792 0.25433,-0.3308 0.0785,-0.14184 0.15429,-0.37622 0.24359,-0.49412 0.0347,-0.24212 0.10577,-0.33725 0.17199,-0.43112 0.0314,-0.24348 0.18207,-0.18303 0.24295,-0.27296 0.1284,-0.11167 0.14368,-0.23439 0.20253,-0.34895 0.062,-0.13381 0.21597,-0.20061 0.25468,-0.33756 0.13761,-0.0875 0.0258,-0.45304 0.005,-0.63754 -0.0166,-0.14682 0.01,-0.13542 -0.0104,-0.29347 -0.0214,-0.16491 0.0841,-0.29769 0.0545,-0.46275 0.0978,-0.1526 0.0213,-0.31776 -0.0252,-0.50246 0.0466,-0.13762 -0.117,-0.39567 -0.18102,-0.58536 -0.0655,-0.17129 -0.004,-0.27549 -0.0659,-0.42968 0.0333,-0.14571 -0.21326,-0.4673 -0.30396,-0.64642 -0.11633,-0.22198 -0.10369,-0.2298 -0.16782,-0.3423 -0.0688,-0.14918 -0.1867,-0.30972 -0.28196,-0.45308 -0.0999,-0.14735 -0.15813,-0.24617 -0.25497,-0.37498 -0.0784,-0.11671 -0.2157,-0.278 -0.33127,-0.41353 -0.10501,-0.12432 -0.22382,-0.26195 -0.335,-0.3812 -0.11309,-0.1213 -0.19321,-0.20705 -0.30492,-0.31916 -0.12069,-0.12115 -0.22023,-0.21416 -0.35546,-0.29515 -0.11419,-0.0795 -0.18638,-0.1177 -0.34364,-0.16646 -0.0694,-0.0216 -0.31505,-0.0799 -0.51197,-0.10053 -0.11568,-0.007 -0.35613,-0.0479 -0.53565,-0.0482 -0.16778,-0.023 -0.35255,-0.0587 -0.51007,-0.0482 -0.19455,-0.0545 -0.33899,-0.0333 -0.4866,-0.009 -0.19275,-0.0377 -0.28932,0.0797 -0.43315,0.12312 -0.15017,0.0453 -0.31584,0.0802 -0.46461,0.0919 -0.16358,0.0129 -0.34166,-0.0338 -0.50499,-0.0252 -0.17366,-0.049 -0.34489,-0.0287 -0.50364,-0.0241 -0.18084,-0.039 -0.21339,0.0495 -0.3669,0.0508 -0.0994,0.0438 -0.41248,-0.0377 -0.60597,-0.0413 -0.17875,-0.041 -0.28817,-0.004 -0.44131,-0.009 -0.14959,-0.003 -0.37608,-0.0964 -0.5439,-0.10584 -0.18689,-0.0906 -0.17793,0.0139 -0.32424,0.004 -0.0846,0.0175 -0.44837,-0.16454 -0.64862,-0.18242 -0.18982,-0.14706 -0.2071,0.0134 -0.34817,-2.9e-4 -0.11153,0.021 -0.37154,-0.0355 -0.55879,-0.0559 -0.15952,-0.0157 -0.36938,-0.18553 -0.53129,-0.20478 -0.18675,-0.16621 -0.28762,-0.047 -0.42813,-0.0638 -0.16549,-0.0326 -0.32038,-0.10333 -0.47921,-0.12249 -0.16124,-0.0844 -0.30905,-0.0363 -0.46762,-0.0549 -0.1563,-0.0177 -0.3491,-0.062 -0.51373,-0.0812 -0.17437,-0.0414 -0.34613,-0.0823 -0.50041,-0.10013 -0.18568,-0.0635 -0.26404,-0.0178 -0.41179,-0.0342 -0.14007,-0.003 -0.33899,-0.0328 -0.5119,-0.0524 -0.15653,-0.0128 -0.32959,-0.0395 -0.49336,-0.0591 -0.16241,-0.0212 -0.21746,0.005 -0.37766,-0.0153 -0.0881,0.0196 -0.44647,-0.1527 -0.64638,-0.18386 -0.19794,-0.12174 -0.25062,-0.0325 -0.38807,-0.0495 -0.14181,-0.0131 -0.3642,-0.21618 -0.53527,-0.23726 -0.18584,-0.1956 -0.29439,0.024 -0.44926,0.0428 -0.15492,0.0188 -0.25105,0.0238 -0.40658,-0.0111 -0.15857,-0.0355 -0.32349,-0.0773 -0.48243,-0.11245 -0.1627,-0.0411 -0.32415,-0.0824 -0.48101,-0.11681 -0.1658,-0.0472 -0.347069,-0.22499 -0.502226,-0.25881 -0.174148,-0.18697 -0.275423,-0.0609 -0.412579,-0.0905 -0.160789,-0.0358 -0.304513,-0.0572 -0.464144,-0.0914 -0.151065,-0.024 -0.328906,-0.0693 -0.494657,-0.10459 -0.158835,-0.0328 -0.27112,-0.0545 -0.432453,-0.0888 -0.126376,-0.0237 -0.385633,-0.13781 -0.563607,-0.17564 -0.176803,-0.0935 -0.262975,-0.0448 -0.409869,-0.0761 -0.140877,-0.0189 -0.147095,-0.0689 -0.318817,-0.10558 -0.02679,-0.0435 -0.452636,-0.10324 -0.676563,-0.15147 -0.16408,-0.0417 -0.31215,-0.0649 -0.470501,-0.0993 -0.157878,-0.0319 -0.347898,-0.18705 -0.510125,-0.22273 -0.168652,-0.1483 -0.258979,-0.0405 -0.403882,-0.0726 -0.141004,-0.0147 -0.314006,-0.0586 -0.485867,-0.097 -0.141226,-0.0206 -0.352166,-0.093 -0.523047,-0.13182 -0.166121,-0.0516 -0.281919,-0.0585 -0.437396,-0.0944 -0.140776,-0.0267 -0.21248,-0.0422 -0.382326,-0.0823 -0.07461,-0.0109 -0.382428,-0.084 -0.584964,-0.13347 -0.145012,-0.0284 -0.250789,-0.0798 -0.417741,-0.1218 -0.101665,-0.0442 -0.386394,-0.11931 -0.571427,-0.16742 -0.168217,-0.0649 -0.163389,-0.0443 -0.31425,-0.0846 -0.06464,-0.0196 -0.410606,-0.11454 -0.614836,-0.1711 -0.159785,-0.0482 -0.229249,-0.0369 -0.385054,-0.0814 -0.103974,-0.003 -0.402048,-0.22112 -0.588901,-0.27684 -0.167159,-0.15468 -0.27569,-0.084 -0.412731,-0.12544 -0.157282,-0.0491 -0.344337,-0.16542 -0.499697,-0.21341 -0.173038,-0.11407 -0.271191,-0.0796 -0.410075,-0.12294 -0.151382,-0.0429 -0.188175,-0.0505 -0.346153,-0.10074 -0.06838,-0.014 -0.394604,-0.12562 -0.593757,-0.19145 -0.153164,-0.0497 -0.364981,-0.20628 -0.519855,-0.25938 -0.183559,-0.14703 -0.270251,-0.11723 -0.39704,-0.1607 -0.162878,-0.0805 -0.279127,-0.0887 -0.424854,-0.13872 -0.144672,-0.0429 -0.189335,-0.093 -0.347624,-0.14915 -0.05839,-0.0497 -0.415814,-0.19831 -0.612425,-0.27024 -0.170383,-0.11273 -0.26086,-0.0958 -0.397427,-0.14465 -0.142644,-0.0527 -0.324481,-0.31835 -0.480356,-0.3776 -0.158699,-0.26217 -0.298382,-0.0699 -0.440928,-0.0845 -0.15355,-0.0157 -0.2076,-0.0233 -0.350418,-0.10402 -0.14155,-0.08 -0.277912,-0.1595 -0.418318,-0.24388 -0.137231,-0.0825 -0.260242,-0.15216 -0.400636,-0.2419 -0.124326,-0.0735 -0.245408,-0.16537 -0.390686,-0.26451 -0.102994,-0.0778 -0.2839,-0.19356 -0.432843,-0.30238 -0.122425,-0.0866 -0.228582,-0.16988 -0.366216,-0.27723 -0.09657,-0.0774 -0.293017,-0.2327 -0.43719,-0.35341 -0.127328,-0.10675 -0.180024,-0.20892 -0.304439,-0.31999 -0.06465,-0.11659 -0.302373,-0.32792 -0.437051,-0.45645 -0.129879,-0.17622 -0.181556,-0.17724 -0.280855,-0.2767 -0.102268,-0.10514 -0.283239,-0.32483 -0.402296,-0.45209 -0.13317,-0.17703 -0.04708,-0.16095 -0.137965,-0.26331 0.0044,-0.11124 -0.268844,-0.30749 -0.400383,-0.46534 -0.103877,-0.12526 -0.207825,-0.253 -0.308739,-0.38207 -0.100517,-0.12855 -0.203836,-0.29823 -0.29945,-0.43024 -0.09438,-0.16286 0.02451,-0.22716 -0.05947,-0.35213 0.08753,-0.14828 -0.194717,-0.30883 -0.314227,-0.48341 -0.06001,-0.11242 -0.189041,-0.28648 -0.287174,-0.43766 -0.07896,-0.13215 -0.212992,-0.33487 -0.295208,-0.47745 -0.111606,-0.18834 -0.183913,-0.36135 -0.238406,-0.48275 -0.06813,-0.15177 -0.06675,-0.18676 -0.111287,-0.35519 -0.04205,-0.15903 -0.08392,-0.32076 -0.121968,-0.48021 -0.03969,-0.16103 -0.08046,-0.32826 -0.11452,-0.48721 -0.04014,-0.16692 -0.07396,-0.32629 -0.103902,-0.48259 -0.03864,-0.16942 -0.05922,-0.34721 -0.08568,-0.50272 -0.02674,-0.18537 -0.08914,-0.39667 -0.111596,-0.54559 -0.05914,-0.22602 -0.03548,-0.25214 -0.05257,-0.37901 -0.02011,-0.16053 -0.0025,-0.31723 -0.02118,-0.47937 0.0205,-0.15834 -0.04865,-0.34595 -0.0648,-0.51144 -0.02729,-0.17161 -0.06793,-0.37377 -0.08072,-0.5304 -0.05019,-0.20184 0.03521,-0.27401 0.02568,-0.41523 0.04603,-0.15789 0.0079,-0.30892 -0.0011,-0.47536 0.01997,-0.14677 -0.03318,-0.35951 -0.04027,-0.53055 -0.02244,-0.1741 -0.04205,-0.34881 -0.04687,-0.50549 -0.03458,-0.18633 -0.03857,-0.36805 -0.04165,-0.51885 -0.03298,-0.20733 0.191157,-0.27488 0.18968,-0.41562 0.194437,-0.15921 0.02641,-0.32657 0.02472,-0.49261 0.02819,-0.15939 0.02827,-0.30951 0.02632,-0.4749 0.02978,-0.14911 0.07624,-0.31319 0.07359,-0.48412 0.07793,-0.14517 -0.01451,-0.37524 -0.01893,-0.5496 -0.01209,-0.18177 -0.01135,-0.46158 -0.01626,-0.61616 -0.0066,-0.26573 0.07062,-0.18524 0.06662,-0.2972 0.07162,-0.13902 -1.78e-4,-0.34502 -0.0094,-0.52305 0.0056,-0.15523 -0.04486,-0.37361 -0.05574,-0.54172 -0.03583,-0.18713 -0.02389,-0.3379 -0.03385,-0.48709 -0.01427,-0.18862 -0.01409,-0.2952 -0.02382,-0.44382 -0.0048,-0.15948 -0.05693,-0.4109 -0.06725,-0.57466 -0.04411,-0.21992 -0.01768,-0.27419 -0.02298,-0.40562 -0.0089,-0.16685 0.04429,-0.29747 0.04135,-0.45849 0.052,-0.13932 0.09479,-0.31169 0.0785,-0.48991 -0.01441,-0.15769 0.05148,-0.34212 0.04902,-0.50702 -0.0024,-0.16336 0.01793,-0.31145 0.02339,-0.47739 0.02408,-0.15423 0.08536,-0.30371 0.09751,-0.47695 0.08292,-0.13899 0.01023,-0.38139 0.02715,-0.56202 -0.0022,-0.18552 0.12375,-0.29323 0.141278,-0.45653 0.110969,-0.14602 0.0071,-0.39609 0.02626,-0.57509 -0.01438,-0.1995 0.05034,-0.30618 0.06672,-0.46604 0.03425,-0.16256 0.03433,-0.55907 0.04979,-0.73498 0.0083,-0.31029 0.07259,-0.16483 0.08041,-0.26686 0.06918,-0.14422 0.146493,-0.36202 0.153658,-0.54367 0.128116,-0.1683 0.09757,-0.29601 0.093,-0.46833 0.08421,-0.1401 -0.0362,-0.41364 -0.06054,-0.60579 -0.03605,-0.1842 -0.04553,-0.31456 -0.07713,-0.46966 -0.03245,-0.16104 -0.07304,-0.32539 -0.118054,-0.48337 -0.04482,-0.15773 -0.122553,-0.34246 -0.177234,-0.49227 -0.07983,-0.17517 0.02318,-0.25731 -0.03225,-0.38728 0.05808,-0.14492 -0.09741,-0.26496 -0.211709,-0.42264 -0.09542,-0.13164 -0.281315,-0.32967 -0.361029,-0.46051 -0.08399,-0.13785 -0.170865,-0.26916 -0.263857,-0.39763 -0.09171,-0.12737 -0.02339,-0.22634 -0.125349,-0.34636 0.03671,-0.12723 -0.179921,-0.28611 -0.326309,-0.42659 -0.04182,-0.11136 -0.289366,-0.27699 -0.433981,-0.39335 -0.132033,-0.12004 -0.263178,-0.22055 -0.383699,-0.30558 -0.146618,-0.12159 -0.226131,-0.15312 -0.345942,-0.22791 -0.1293,-0.0788 -0.220211,-0.13735 -0.361363,-0.21448 -0.101178,-0.0567 -0.326055,-0.21495 -0.488002,-0.29183 -0.145291,-0.11275 -0.135315,-0.11713 -0.271966,-0.17433 -0.0503,-0.0705 -0.370872,-0.14693 -0.564252,-0.21405 -0.14835,-0.0506 -0.30937,-0.14815 -0.463362,-0.19501 -0.153588,-0.0914 -0.26597,-0.0627 -0.414248,-0.10097 -0.135817,-0.0193 -0.371845,-0.17201 -0.538162,-0.20979 -0.181541,-0.12142 -0.23667,-0.0312 -0.372747,-0.0534 -0.128878,-10e-4 -0.346284,-0.0651 -0.516978,-0.0895 -0.160839,-0.0346 -0.238318,-0.0113 -0.388379,-0.0307 -0.157863,-0.0203 -0.436119,-0.16789 -0.584965,-0.19462 -0.159813,-0.0287 -0.321802,-0.0835 -0.481172,-0.10909 -0.1598,-0.053 -0.329164,-0.10857 -0.486193,-0.13045 -0.167226,-0.081 -0.243529,-0.0299 -0.395637,-0.047 -0.118165,-0.01 -0.396805,-0.22237 -0.578051,-0.23764 -0.183382,-0.19711 -0.286019,-0.0186 -0.432395,-0.0226 -0.15763,-0.003 -0.286703,-0.002 -0.451627,0.001 -0.130008,0.006 -0.362806,-0.02 -0.539053,-0.0115 -0.170594,-0.0228 -0.24963,0.0593 -0.405177,0.071 -0.111143,0.0542 -0.22807,0.0507 -0.410443,0.057 -0.05409,0.0347 -0.422685,-0.0444 -0.633684,-0.0503 -0.175581,-0.005 -0.190608,0.0502 -0.33028,0.05 z m -0.199356,1.16926 c 0.163231,0.004 0.326337,0.007 0.4909,0.0122 0.166077,0.006 0.334032,0.0156 0.49887,0.0214 0.169481,0.0114 0.323227,0.007 0.487597,0.014 0.16353,0.002 0.342251,0.0186 0.510773,0.0278 0.170891,0.0121 0.299583,-0.0177 0.464752,-0.007 0.147756,-0.0246 0.395743,0.051 0.574163,0.0662 0.192761,0.0386 0.309626,0.0293 0.462947,0.0449 0.168638,0.0188 0.337298,0.0383 0.502859,0.0585 0.169886,0.023 0.413789,0.0943 0.577609,0.118 0.220342,0.072 0.234005,-0.0321 0.368249,-0.0102 0.14457,-0.0429 0.372791,0.0729 0.551847,0.10836 0.170885,0.0424 0.454947,0.0731 0.612386,0.10949 0.255917,0.0351 0.300547,0.0686 0.41687,0.0989 0.205269,0.049 0.255213,0.0157 0.391802,0.0568 0.149448,-0.008 0.323911,0.0583 0.492366,0.12001 0.147437,0.0108 0.333814,0.12777 0.498628,0.20128 0.150309,0.0658 0.29888,0.13037 0.448002,0.2076 0.144815,0.0668 0.282892,0.14504 0.429086,0.23136 0.132795,0.0723 0.398031,0.20938 0.542966,0.30518 0.220736,0.10723 0.219089,0.1507 0.32016,0.22736 0.133782,0.10142 0.2711,0.21499 0.400624,0.32267 0.123605,0.10276 0.210464,0.0838 0.348497,0.19583 0.132773,0.10779 0.246966,0.22754 0.344334,0.35649 0.09775,0.12912 0.168959,0.25593 0.236232,0.40152 0.05975,0.13816 0.216406,0.32945 0.259992,0.49234 0.132188,0.17112 0.04522,0.27476 0.06296,0.42915 -0.0013,0.15022 0.0031,0.28236 0.0063,0.46445 -0.02347,0.11264 0.01108,0.38845 0.0098,0.58754 0.0067,0.17121 -0.0032,0.3376 -0.007,0.49938 -0.004,0.16848 0.04092,0.36777 0.04056,0.51638 -3.9e-4,0.16212 -0.0013,0.32451 -0.003,0.4868 -0.0015,0.16241 -0.005,0.10383 -0.0079,0.26623 -0.0051,0.0149 0.01434,0.47926 0.0078,0.71573 0.01965,0.16781 -0.01888,0.24815 -0.0242,0.40871 -0.01578,0.11407 0.01477,0.39427 0.0075,0.58136 0.02166,0.17711 0.03681,0.3463 0.0301,0.5028 0.04273,0.18624 -0.01565,0.30271 -0.0228,0.45539 -0.0099,0.16147 0.0077,0.3446 -4.99e-4,0.50863 0.01545,0.17483 -0.02247,0.30939 -0.03085,0.4675 -0.01512,0.1587 -0.0343,0.29172 -0.04342,0.45715 -0.02626,0.1369 0.0662,0.35275 0.05629,0.52877 0.07646,0.16558 -0.03816,0.27652 -0.04767,0.4412 -0.02988,0.12766 -0.0086,0.37113 -0.01903,0.55167 0.003,0.17043 0.02081,0.34425 0.01157,0.50434 0.03038,0.1802 -0.01555,0.31402 -0.02448,0.46996 -0.0069,0.16468 0.155321,0.33562 0.146212,0.49808 0.164726,0.17372 0.175835,0.35389 0.166538,0.51681 0.185207,0.18613 -0.0077,0.32545 -0.01722,0.48342 9.91e-4,0.16988 -0.02275,0.31693 -0.03286,0.47728 -0.01341,0.16026 0.06702,0.36357 0.05649,0.52767 0.07805,0.18839 -0.01918,0.30688 -0.02927,0.45984 -0.01004,0.16296 -0.02091,0.32528 -0.03168,0.48737 -0.01014,0.16253 -0.01067,0.33269 -0.02122,0.49428 4.21e-4,0.16799 0.13768,0.3639 0.1277,0.52251 0.148833,0.19649 0.151185,0.34402 0.141511,0.49381 0.160436,0.19617 -0.02394,0.2963 -0.03467,0.44807 -0.01535,0.15646 -0.04034,0.23889 -0.05248,0.40297 -0.03069,0.0993 -0.03109,0.33932 -0.04481,0.52913 -0.01541,0.13202 -0.01383,0.35318 -0.02535,0.52589 3.4e-4,0.16455 -0.0013,0.32797 -0.01059,0.48436 0.01,0.16929 -0.05145,0.25462 -0.05928,0.40842 -0.04257,0.1212 -0.03929,0.19556 -0.04524,0.37066 -0.02982,0.0518 0.01149,0.43423 0.01007,0.64465 0.02183,0.17149 0.06076,0.34398 0.06247,0.49647 0.06316,0.1865 0.007,0.29421 0.01011,0.43962 0.0066,0.16132 -0.002,0.30351 0.0038,0.46116 -0.0037,0.15054 0.08499,0.37307 0.09507,0.536 0.08013,0.19149 0.05182,0.308 0.06092,0.44983 0.04435,0.17516 0.0093,0.12913 0.01927,0.27986 0.0037,0.0202 0.02322,0.41476 0.04774,0.64504 0.01051,0.15168 0.02926,0.2909 0.05716,0.45168 0.02932,0.16893 0.02874,0.2922 0.06957,0.43732 0.04576,0.16262 0.05691,0.2502 0.110717,0.40907 0.02387,0.11164 0.158989,0.39191 0.232185,0.57204 0.08688,0.16862 0.11185,0.24429 0.176721,0.38519 0.06671,0.12105 0.218935,0.3637 0.302255,0.52297 0.131034,0.1665 0.118446,0.23447 0.189753,0.35904 0.06893,0.13162 0.170725,0.28447 0.263464,0.43099 0.08605,0.12923 0.215311,0.31131 0.312301,0.45129 0.117289,0.15132 0.223351,0.28702 0.314702,0.40933 0.134865,0.15503 0.223329,0.26863 0.31452,0.38281 0.138335,0.15086 0.23348,0.25912 0.328685,0.37096 0.144291,0.14373 0.173258,0.191 0.272492,0.30068 0.09969,0.0997 0.211573,0.21446 0.33664,0.34315 0.09751,0.0833 0.25146,0.11511 0.386199,0.24443 0.135263,-0.01 0.328233,0.2886 0.479864,0.42745 0.148951,0.11458 0.338132,0.25201 0.456125,0.35635 0.205282,0.12898 0.250753,0.20893 0.350113,0.29484 0.164133,0.13099 0.213125,0.18042 0.324284,0.2737 0.122124,0.0996 0.249764,0.18533 0.382934,0.29198 0.122771,0.0757 0.354292,0.26779 0.495847,0.37588 0.186972,0.13171 0.213005,0.15434 0.320988,0.23316 0.131094,0.0886 0.417987,0.23753 0.55816,0.33227 0.255254,0.11542 0.205424,0.1472 0.293395,0.21149 0.119471,0.0873 0.22479,0.0995 0.400392,0.19149 0.146165,0.0766 0.399545,0.20616 0.546555,0.28055 0.218188,0.11042 0.230419,0.11906 0.342228,0.17414 0.152166,0.0783 0.355826,0.18527 0.501239,0.25448 0.190889,0.10316 0.26998,0.13579 0.395305,0.19369 0.161465,0.083 0.389306,0.17673 0.531313,0.24016 0.220683,0.0982 0.386818,0.11415 0.5017,0.16409 0.262158,0.0579 0.232903,0.1068 0.337744,0.15129 0.165849,0.0767 0.242402,-0.0212 0.385036,0.0374 0.137373,-0.0672 0.351681,0.13447 0.532029,0.20578 0.147357,0.0496 0.30978,0.11773 0.465916,0.17749 0.151696,0.0543 0.258677,0.029 0.41273,0.0861 0.127887,-0.0223 0.391018,0.14542 0.568403,0.20902 0.178161,0.0659 0.261802,0.0364 0.403253,0.0857 0.146114,-0.006 0.328697,0.10405 0.495936,0.16078 0.152081,0.0417 0.264954,-0.0399 0.422599,0.0122 0.134315,-0.0851 0.342628,0.084 0.52739,0.14363 0.140613,0.0167 0.420487,0.1514 0.587639,0.20432 0.212177,0.0839 0.263248,0.0902 0.388564,0.12926 0.16386,0.0583 0.294392,0.0856 0.445594,0.13187 0.151651,0.0406 0.307864,0.0793 0.467484,0.12726 0.15054,0.0307 0.370626,0.13036 0.532473,0.17809 0.186781,0.0748 0.270442,-0.0616 0.409937,-0.0211 0.164245,-0.0934 0.299507,0.0189 0.472359,0.0686 0.132813,-0.0297 0.348225,0.0425 0.527432,0.094 0.156391,-0.0128 0.503524,0.11917 0.669855,0.1672 0.274529,0.0533 0.251487,0.0915 0.354267,0.12125 0.186627,0.0728 0.303464,0.0983 0.443908,0.13909 0.171375,0.0601 0.286172,0.0271 0.435149,0.0702 0.15443,-0.0112 0.416074,0.14505 0.582695,0.19352 0.210193,0.0855 0.317596,0.0841 0.44512,0.12109 0.199664,0.0497 0.275231,-0.005 0.412263,0.0345 0.165692,-0.037 0.31654,-0.0927 0.481408,-0.0443 0.166539,-0.13582 0.345842,0.0821 0.52663,0.13885 0.14832,0.0253 0.384884,0.1445 0.550101,0.19879 0.189933,0.0839 0.351996,0.13414 0.486874,0.17923 0.207766,0.087 0.208693,0.0256 0.333587,0.0673 0.13043,-6.8e-4 0.37267,0.13289 0.54605,0.19166 0.17044,0.0652 0.28833,-0.13554 0.43267,-0.0872 0.18161,-0.17235 0.34204,-0.0327 0.52524,0.0414 0.15558,-0.0914 0.32657,0.11451 0.5093,0.20604 0.12001,0.0324 0.29799,0.13986 0.45708,0.22321 0.13028,0.0542 0.3055,0.15787 0.45175,0.23005 0.15791,0.0759 0.25656,0.11155 0.39189,0.16548 0.15307,0.061 0.33393,0.1389 0.48992,0.17114 0.1555,0.0321 0.36723,0.0742 0.52253,0.10825 0.19333,0.0388 0.23549,-0.1001 0.372,-0.069 0.14125,-0.12 0.35963,0.0843 0.53895,0.12798 0.15547,0.0385 0.28364,-0.042 0.43828,-0.003 0.14657,-0.0749 0.33828,0.0807 0.51099,0.12624 0.15005,0.0338 0.27142,0.026 0.42839,0.068 0.12889,-0.0115 0.33541,0.081 0.50757,0.12722 0.14875,0.0307 0.28525,0.0532 0.44184,0.0944 0.13633,0.0124 0.37544,0.0888 0.53977,0.13009 0.18681,0.0382 0.23272,-0.0718 0.36958,-0.0394 0.1353,-0.0982 0.35638,0.0876 0.53525,0.13176 0.1526,0.0387 0.47272,0.0935 0.62457,0.1285 0.27149,0.0426 0.16918,-0.007 0.26318,0.0129 0.14102,-0.0161 0.43361,0.10524 0.59724,0.13622 0.23382,0.0573 0.31924,0.0706 0.43451,0.0774 0.14647,0.009 0.21741,-0.037 0.40722,-0.0519 0.15305,-0.012 0.40681,0.0116 0.56216,-0.0111 0.22631,0.0236 0.33854,-0.026 0.46466,-0.0496 0.21764,-0.0106 0.26141,-0.0615 0.39088,-0.0892 0.15598,-0.0434 0.44487,-0.0617 0.59926,-0.094 0.24731,-0.0177 0.25197,-0.0319 0.36187,-0.0529 0.17338,-0.0128 0.28958,-0.0597 0.43053,-0.0776 0.14864,-0.0252 0.28301,-0.10677 0.43467,-0.10315 0.13185,-0.0734 0.26094,-0.10281 0.42628,-0.0455 0.13862,0.048 0.3199,0.23547 0.46327,0.29508 0.17138,0.0713 0.25714,0.11062 0.35285,0.23725 0.063,0.078 0.11664,0.21989 0.14296,0.40547 -0.031,0.0811 0.002,0.27414 -0.0337,0.46583 -0.0498,0.0813 -0.10128,0.35387 -0.1796,0.52439 -0.0766,0.1321 -0.0344,0.31084 -0.12715,0.42371 0.006,0.16119 -0.26513,0.20293 -0.43097,0.24944 -0.15399,0.0432 -0.32902,0.036 -0.48143,-0.005 -0.15262,-0.0415 -0.3058,-0.25809 -0.45947,-0.30706 -0.13656,-0.21438 -0.0914,-0.0826 -0.22872,-0.12951 -0.0253,-0.0645 -0.40933,-0.14118 -0.62104,-0.21669 -0.1507,-0.0527 -0.3288,-0.12507 -0.48938,-0.18235 -0.16397,-0.0659 -0.3661,-0.21628 -0.52084,-0.27006 -0.19019,-0.15272 -0.25707,-0.0845 -0.38884,-0.12748 -0.15757,-0.0477 -0.34864,-0.19507 -0.51264,-0.24319 -0.17004,-0.13428 -0.31044,-0.0997 -0.45925,-0.13632 -0.17179,-0.0548 -0.30466,-0.0647 -0.46341,-0.0945 -0.15454,-0.0224 -0.19805,-0.0346 -0.36633,-0.0552 -0.0644,-0.001 -0.34263,0.003 -0.55529,-0.006 -0.10585,0.0378 -0.39702,-0.0783 -0.58188,-0.0765 -0.18325,-0.0658 -0.30829,-0.15272 -0.45215,-0.13816 -0.18493,-0.14556 -0.36407,-0.0695 -0.52419,-0.0113 -0.18972,-0.0746 -0.29886,0.16395 -0.4406,0.26636 -0.12927,0.0934 -0.19449,0.21903 -0.32689,0.2681 -0.20749,0.0769 -0.32622,0.16935 -0.396,0.25453 -0.055,0.0905 0.023,0.21671 0.0533,0.29558 0.12563,0.11496 0.063,0.11442 0.12346,0.16513 0.0906,0.075 0.23556,0.14725 0.40009,0.19473 0.14484,0.0418 0.33703,0.0853 0.51156,0.0956 0.15684,0.009 0.38502,0.0577 0.54136,0.0803 0.20308,0.051 0.24554,0.0232 0.3763,0.0502 0.14596,0.0145 0.33684,0.0772 0.49896,0.12105 0.16323,0.0453 0.34156,0.10734 0.49267,0.1553 0.17992,0.0662 0.23953,0.032 0.38032,0.0811 0.13034,1.4e-4 0.35116,0.12708 0.52437,0.19209 0.15602,0.0599 0.26453,0.0555 0.4163,0.11355 0.13079,0.005 0.38535,0.15169 0.55623,0.21641 0.18071,0.0723 0.227,-0.0469 0.36304,0.002 0.13286,-0.085 0.44424,0.17756 0.62392,0.23933 0.20409,0.0891 0.38783,0.13204 0.5043,0.16829 0.24977,0.0829 0.16074,-0.0171 0.25408,0.008 0.13256,-0.0309 0.37276,0.11476 0.53091,0.14655 0.17956,0.057 0.35628,0.0702 0.48236,0.0816 0.22097,0.0355 0.26884,0.0283 0.38061,0.0204 0.17701,0.005 0.30891,-0.0267 0.45326,-0.0735 0.13168,-0.0427 0.37035,-0.0756 0.5381,-0.14101 0.14711,-0.0573 0.27027,-0.11864 0.40789,-0.12679 0.12604,-0.0385 0.30053,0.0232 0.43568,0.0667 0.13472,0.0512 0.22353,-0.0601 0.3317,0.0124 0.11566,-0.0701 0.21894,0.2048 0.33134,0.374 0.0873,0.13145 0.19804,0.28724 0.2707,0.40546 0.0826,0.13441 0.13572,0.27866 0.16175,0.44955 0.026,0.15831 -0.0281,0.27944 -0.0589,0.45759 -0.0841,0.10133 -0.0944,0.36173 -0.17673,0.51966 -0.0785,0.12877 -0.14118,0.25887 -0.25339,0.33727 -0.12193,0.0852 -0.32292,0.0686 -0.50306,0.0347 -0.15554,-0.0292 -0.25139,-0.0604 -0.39516,-0.10883 -0.10618,-0.0443 -0.31879,-0.26728 -0.47186,-0.33679 -0.12269,-0.20352 -0.25264,-0.14082 -0.36896,-0.19173 -0.15022,-0.0927 -0.24838,-0.11135 -0.37974,-0.1617 -0.13221,-0.0559 -0.33503,-0.28175 -0.48818,-0.32975 -0.1827,-0.21873 -0.29891,-0.0714 -0.4403,-0.0674 -0.14727,0.004 -0.30696,-0.0607 -0.47763,-0.0955 -0.15004,-0.0306 -0.28081,-0.0443 -0.43704,-0.0664 -0.14103,-0.011 -0.3388,-0.1305 -0.50795,-0.14671 -0.16455,-0.10333 -0.35426,-0.0802 -0.51378,-0.0904 -0.19078,-0.0628 -0.32857,-0.0683 -0.481,-0.0749 -0.18326,-0.0578 -0.2851,0.0136 -0.4429,0.009 -0.14578,0.0202 -0.31958,-0.009 -0.49529,-0.0156 -0.14159,-0.005 -0.30073,0.0218 -0.4743,0.0116 -0.12838,0.025 -0.17213,-0.007 -0.34787,-0.0255 -0.0292,-0.005 -0.39216,-0.0326 -0.60826,-0.0738 -0.1238,-0.01 -0.32125,-0.0652 -0.48203,-0.10976 -0.14059,-0.0368 -0.33511,-0.2325 -0.47455,-0.28481 -0.15706,-0.18744 -0.17059,-0.0684 -0.2717,-0.10851 -0.10154,-0.0457 -0.27585,-0.11119 -0.41019,-0.18075 -0.11676,-0.0591 -0.17883,-0.1067 -0.29228,-0.19585 -0.11595,-0.0911 -0.21302,-0.21244 -0.3006,-0.33459 -0.12534,-0.17481 -0.14395,-0.22914 -0.29395,-0.27943 -0.0528,-0.0108 -0.27161,-0.007 -0.44341,0.0546 -0.0391,0.0898 -0.32793,-0.0158 -0.43159,0.0782 -0.1588,-0.0496 -0.17901,0.2144 -0.18945,0.34988 -0.0143,0.10121 0.0281,0.23593 0.11111,0.34237 0.0941,0.12062 0.19064,0.11078 0.42967,0.17079 0.15984,0.0401 0.39781,0.11803 0.55624,0.16966 0.21175,0.0746 0.34853,0.12737 0.47856,0.17618 0.21573,0.087 0.26008,0.10063 0.38648,0.15285 0.15934,0.066 0.30033,0.0408 0.4544,0.10921 0.15594,-0.0169 0.33981,0.15441 0.50982,0.24092 0.15071,0.0717 0.27123,0.0951 0.42394,0.17313 0.12608,0.0191 0.30974,0.13776 0.47895,0.22647 0.15065,0.079 0.30986,0.18202 0.45852,0.23406 0.14296,0.05 0.28509,0.0841 0.43541,0.11846 0.14713,0.0278 0.31101,0.0649 0.46861,0.0884 0.15765,0.0252 0.33767,0.0623 0.49493,0.0788 0.17647,0.0363 0.31265,0.0307 0.46222,0.044 0.1688,0.0153 0.30321,0.0198 0.45659,0.0353 0.15396,0.009 0.33862,0.0381 0.4958,0.0614 0.16737,0.0256 0.43265,0.10282 0.57564,0.13548 0.24193,0.0784 0.25774,0.0591 0.35185,0.088 0.18966,0.0512 0.35658,0.14591 0.46885,0.20442 0.21606,0.11687 0.19191,0.10858 0.27476,0.18481 0.0957,0.0881 0.1869,0.19425 0.31755,0.35138 0.10235,0.12311 0.19734,0.27248 0.24536,0.41971 0.0685,0.15513 0.0463,0.18303 0.0473,0.33856 -0.0217,0.0786 -0.003,0.40581 -0.0587,0.60246 -0.0181,0.17009 -0.16378,0.20408 -0.23873,0.34971 -0.14042,0.0545 -0.0411,0.3382 -0.14789,0.47935 0.0295,0.16534 -0.26256,0.21211 -0.40434,0.31328 -0.14448,0.0282 -0.28329,0.0755 -0.41094,0.12786 -0.16171,-0.0325 -0.21171,0.11443 -0.32673,0.13696 -0.132,0.0259 -0.13216,0.0231 -0.2662,-0.0586 -0.13228,-0.0806 -0.26575,-0.28822 -0.36987,-0.40524 -0.10169,-0.20009 -0.2067,-0.31974 -0.27752,-0.42789 -0.11415,-0.22581 -0.15576,-0.24164 -0.21457,-0.34871 -0.10201,-0.17028 -0.12415,-0.25871 -0.19299,-0.39293 -0.0594,-0.13961 -0.0962,-0.29349 -0.18595,-0.43409 -0.0282,-0.13015 -0.13086,-0.24941 -0.26517,-0.36331 -0.0429,-0.0666 -0.30471,-0.30131 -0.48016,-0.36861 -0.14405,-0.0553 -0.27157,0.0134 -0.4238,0.005 -0.14513,-0.008 -0.28537,-0.0165 -0.44637,-0.0492 -0.1523,-0.0209 -0.34502,-0.0884 -0.52456,-0.1442 -0.17702,-0.0622 -0.2037,-0.1005 -0.38456,-0.17007 -0.0788,-0.0708 -0.45361,-0.18282 -0.68819,-0.2874 -0.18951,-0.0845 -0.38851,-0.18084 -0.58209,-0.27342 -0.19778,-0.0983 -0.33478,-0.16103 -0.52689,-0.25668 -0.16229,-0.0802 -0.38616,-0.18178 -0.59541,-0.28779 -0.17043,-0.0746 -0.42021,-0.22287 -0.62175,-0.32427 -0.19211,-0.10635 -0.27457,-0.15246 -0.4507,-0.23812 -0.1194,-0.0718 -0.25742,-0.17248 -0.45395,-0.26003 -0.0623,-0.0718 -0.41367,-0.17625 -0.61611,-0.24898 -0.1438,-0.0497 -0.26394,-0.067 -0.41012,-0.10447 -0.10233,3.2e-4 -0.32289,-0.10241 -0.45738,-0.1157 -0.12059,-0.0438 -0.19527,-0.01 -0.27874,0.001 -0.0785,0.0105 -0.10115,0.0397 -0.16048,0.0708 -0.0141,0.041 -0.12742,0.0593 -0.17122,0.11403 -0.0568,0.0411 -0.11943,0.007 -0.13416,0.0941 -0.0174,0.10314 0.14367,0.3618 0.17635,0.50408 0.0394,0.17136 0.12606,0.32222 0.21209,0.42715 0.10145,0.11634 0.14117,0.0789 0.25043,0.13503 0.095,-0.0248 0.27829,0.0926 0.43931,0.13658 0.13334,0.0123 0.29741,0.0764 0.44399,0.11615 0.15104,0.0399 0.29309,0.0913 0.42319,0.13992 0.13544,0.0506 0.21147,-0.0882 0.32602,-0.015 0.13658,0.0874 0.28967,0.18777 0.42835,0.28474 0.15015,0.10122 0.25127,0.158 0.38701,0.25644 0.13008,0.0743 0.30151,0.2206 0.45386,0.33175 0.14307,0.10416 0.26454,0.18123 0.40761,0.28019 0.1294,0.0783 0.29653,0.20191 0.45101,0.29967 0.1475,0.0934 0.37015,0.21904 0.51486,0.29113 0.12919,0.0643 0.44327,0.15253 0.5856,0.18975 0.26343,0.063 0.12342,-0.11867 0.20981,-0.10335 0.124,-0.12878 0.33827,0.0103 0.51044,0.0412 0.14685,-0.0193 0.2617,-0.0373 0.41236,0.008 0.11127,-0.051 0.3258,0.0659 0.48195,0.16546 0.11768,0.0148 0.25738,0.19777 0.36255,0.3125 0.0967,0.10547 0.18745,0.20891 0.26067,0.3116 0.1056,0.1481 0.14133,0.25156 0.17377,0.39292 0.005,0.11076 0.0425,0.31002 0.0102,0.45704 -0.0185,0.1394 -0.008,0.30751 -0.0793,0.43379 -0.002,0.18128 -0.19827,0.12668 -0.31385,0.25025 -0.14894,-1.5e-4 -0.30992,0.13608 -0.45685,0.28547 -0.17939,-0.007 -0.25072,0.32645 -0.37784,0.49706 -0.11274,0.15131 -0.13156,0.34397 -0.24797,0.44534 -0.11936,0.10394 -0.25559,0.0737 -0.38848,0.12568 -0.14095,-0.055 -0.28109,0.0373 -0.42006,0.0468 -0.13823,-0.0356 -0.29057,-0.0751 -0.4173,-0.0968 -0.15423,-0.0969 -0.22827,-0.0451 -0.341,-0.0865 -0.13041,-0.0441 -0.25389,-0.11489 -0.37745,-0.1962 -0.11326,-0.0831 -0.2428,-0.17924 -0.35172,-0.29653 -0.0987,-0.10758 -0.22702,-0.35745 -0.30666,-0.50356 -0.0754,-0.13838 -0.14317,-0.22704 -0.18169,-0.38763 -0.0396,-0.16522 -0.0428,-0.31064 -0.10622,-0.45195 -0.0192,-0.14506 -0.13941,-0.28566 -0.23256,-0.41395 -0.0791,-0.11755 -0.16426,-0.21472 -0.27364,-0.31959 -0.0876,-0.0867 -0.0626,-0.19002 -0.19396,-0.28299 0.0131,-0.0954 -0.16863,-0.19272 -0.35669,-0.29008 -0.01,-0.0676 -0.38416,-0.21397 -0.58689,-0.29844 -0.15017,-0.0919 -0.26707,-0.10313 -0.41107,-0.15763 -0.14317,-0.0491 -0.30901,-0.11339 -0.46828,-0.17156 -0.15209,-0.0539 -0.15274,-0.0962 -0.30923,-0.15502 -0.0349,-0.0553 -0.40654,-0.1787 -0.61586,-0.26062 -0.15472,-0.0876 -0.25779,-0.11314 -0.40531,-0.17415 -0.11866,-0.0626 -0.22594,-0.0898 -0.38468,-0.16651 -0.16019,-0.0774 -0.47143,-0.35402 -0.58992,-0.44326 -0.17743,-0.13364 -0.22555,-0.19316 -0.37239,-0.21504 -0.0626,-0.0161 -0.31373,0.0379 -0.43911,0.12607 -0.0657,0.0823 -0.17498,0.0879 -0.22895,0.18277 -0.0761,0.0529 -0.0874,0.24829 -0.0904,0.38094 0.009,0.1278 0.01,0.2281 0.0635,0.33893 0.0496,0.11069 0.12743,0.18852 0.27424,0.27261 0.14514,0.0831 0.3344,0.13037 0.57267,0.13542 0.15705,0.003 0.28812,-0.0282 0.44766,-0.009 0.14328,-0.0222 0.36241,0.0661 0.53382,0.10589 0.17162,0.0505 0.28299,0.0493 0.43274,0.0991 0.14482,0.0265 0.35383,0.13022 0.51411,0.20369 0.1666,0.076 0.27155,0.12568 0.40651,0.20489 0.13592,0.0739 0.28708,0.17921 0.4223,0.2817 0.12956,0.0979 0.24067,0.14821 0.35812,0.26224 0.11238,0.066 0.24411,0.22403 0.354,0.37063 0.0985,0.0994 0.19353,0.2097 0.27676,0.36598 0.0806,0.0798 0.19978,0.35794 0.26028,0.54169 0.0553,0.16782 0.081,0.33813 0.11428,0.48878 0.035,0.15841 0.0962,0.34992 0.0918,0.51272 0.0424,0.18666 -0.0648,0.26884 -0.10545,0.42154 -0.0819,0.12162 -0.15667,0.24195 -0.23847,0.39727 -0.12888,0.0633 -0.21138,0.25071 -0.32069,0.3901 -0.13453,0.0722 -0.20738,0.22862 -0.32516,0.33675 -0.11818,0.0869 -0.17838,0.2459 -0.31904,0.3191 -0.14643,0.0762 -0.41556,0.0159 -0.59404,0.0208 -0.17059,0.005 -0.34174,-0.0619 -0.49533,-0.0932 -0.1542,-0.0812 -0.18028,-0.0695 -0.31191,-0.1237 -0.0623,-0.0645 -0.32226,-0.15235 -0.47681,-0.2502 -0.12733,-0.0806 -0.29602,-0.25438 -0.41849,-0.35003 -0.14716,-0.1649 -0.23687,-0.2739 -0.33438,-0.35609 -0.13849,-0.20009 -0.15407,-0.15514 -0.25102,-0.23239 -0.0837,-0.0931 -0.25986,-0.20681 -0.40535,-0.31826 -0.12383,-0.0949 -0.31293,-0.36809 -0.43416,-0.47801 -0.12443,-0.11282 -0.25646,-0.18747 -0.39753,-0.23384 -0.13868,-0.0443 -0.30279,-0.0775 -0.45138,-0.0676 -0.15833,-0.005 -0.25868,0.051 -0.39922,0.10614 -0.116792,0.0646 -0.277169,0.15016 -0.414973,0.24622 -0.110914,0.10205 -0.257337,0.19088 -0.368241,0.30177 -0.111069,0.11106 -0.06984,0.28596 -0.138821,0.41333 -0.07464,0.13784 -0.11283,0.29172 -0.207715,0.41379 -0.05128,0.15038 -0.243726,0.18257 -0.364576,0.28976 -0.15202,0.0432 -0.260421,0.1819 -0.391685,0.27357 -0.144036,0.0667 -0.20264,0.18934 -0.337049,0.26513 -0.08989,0.0986 -0.355811,0.0629 -0.523427,0.11749 -0.156087,0.0509 -0.288548,0.13854 -0.442337,0.16858 -0.158649,0.031 -0.262455,0.0954 -0.421604,0.12116 -0.119952,0.0644 -0.351601,0.0527 -0.528635,0.0742 -0.159989,0.019 -0.302293,0.051 -0.463131,0.0655 -0.147747,0.0297 -0.331705,1e-5 -0.49866,0.01 -0.160661,-0.0177 -0.355748,-0.11976 -0.517314,-0.11307 -0.187401,-0.13084 -0.198836,0.0489 -0.35076,0.061 -0.08096,0.0474 -0.40817,0.002 -0.607651,0.0162 -0.177425,-0.0172 -0.296157,0.0312 -0.448365,0.0429 -0.152224,0.0207 -0.378009,-0.0847 -0.540468,-0.0789 -0.16444,0.006 -0.26997,0.11603 -0.425962,0.1123 -0.160762,-0.004 -0.322052,-0.0102 -0.482451,-0.0174 -0.160861,-0.008 -0.363533,-0.14394 -0.523333,-0.15421 -0.185899,-0.13719 -0.222286,-0.006 -0.364323,-0.017 -0.117735,-7.3e-4 -0.36612,-0.0366 -0.546099,-0.0533 -0.16272,-0.0219 -0.273371,0.002 -0.430042,-0.0149 -0.132826,0.0136 -0.328873,-0.0219 -0.502076,-0.0427 -0.147505,-0.004 -0.142617,-0.0104 -0.30771,-0.0324 -0.03185,0.001 -0.462349,-0.0856 -0.685032,-0.11893 -0.17144,-0.0473 -0.227036,-0.039 -0.377392,-0.0627 -0.108538,-0.0221 -0.399702,-0.19224 -0.582746,-0.22258 -0.176134,-0.15736 -0.210773,-0.0131 -0.350501,-0.0355 -0.113324,0.004 -0.366958,-0.0616 -0.550269,-0.0906 -0.160098,-0.0283 -0.205105,-0.0478 -0.362776,-0.0726 -0.08266,-0.0283 -0.407588,-0.14676 -0.603867,-0.17731 -0.169283,-0.10922 -0.277095,-0.0346 -0.425777,-0.0553 -0.146125,-0.013 -0.15427,-0.0436 -0.3205,-0.0653 -0.03102,-0.0257 -0.465628,-0.11746 -0.689747,-0.14473 -0.183282,-0.0811 -0.300629,-0.0554 -0.445126,-0.0689 -0.167678,-0.0376 -0.326634,-0.0398 -0.479419,-0.0507 -0.17201,-0.0253 -0.203556,-0.0127 -0.352209,-0.0244 -0.163209,-0.0129 -0.453174,-0.0728 -0.606274,-0.10412 -0.157356,-0.0321 -0.316964,-0.0645 -0.474638,-0.0929 -0.158978,-0.0304 -0.329483,-0.0748 -0.486653,-0.0994 -0.167627,-0.044 -0.337442,-0.0858 -0.489661,-0.10612 -0.17939,-0.0595 -0.300795,-0.0712 -0.446881,-0.0874 -0.163873,-0.0511 -0.307079,-0.0292 -0.462308,-0.0428 -0.157282,-0.0106 -0.333736,-0.1285 -0.494515,-0.13879 -0.166747,-0.11225 -0.333744,-0.0704 -0.488252,-0.076 -0.177341,-0.0584 -0.259146,-0.007 -0.41159,-0.008 -0.130231,7.8e-4 -0.374696,-0.0298 -0.551691,-0.0258 -0.175564,-0.0266 -0.293142,0.0206 -0.44729,0.0281 -0.149795,0.0195 -0.2798,0.0499 -0.44518,0.0615 -0.123897,0.0442 -0.352194,0.0184 -0.528538,0.0327 -0.160477,0.006 -0.268512,0.0466 -0.427716,0.061 -0.124264,0.0357 -0.353955,0.0246 -0.52999,0.0406 -0.163281,0.007 -0.333779,0.007 -0.491519,0.022 -0.174073,-0.007 -0.286696,0.0494 -0.439498,0.0663 -0.143227,0.0369 -0.33236,0.0327 -0.498466,0.049 -0.161488,0.0133 -0.244116,0.0567 -0.402028,0.0722 -0.161214,0.0158 -0.418092,-0.0663 -0.575561,-0.0508 -0.160874,0.0159 -0.242665,0.075 -0.403576,0.0923 -0.106136,0.0624 -0.374916,0.0312 -0.560357,0.0527 -0.164071,0.009 -0.279437,0.0694 -0.439309,0.0889 -0.132537,0.053 -0.37488,-0.005 -0.54775,0.0171 -0.182736,-0.028 -0.221518,0.0892 -0.374895,0.10938 -0.101456,0.0744 -0.40764,-0.005 -0.594536,0.0203 -0.186585,-0.0339 -0.305312,-0.174 -0.457655,-0.15299 -0.171663,-0.19181 -0.337967,0.0506 -0.508946,0.0751 -0.158626,0.0262 -0.314206,0.0567 -0.476701,0.0806 -0.153574,0.034 -0.325951,0.0506 -0.49024,0.0751 -0.159389,0.0262 -0.335152,0.0299 -0.497058,0.0543 -0.169788,0.005 -0.359436,-0.0339 -0.517744,-0.01 -0.194196,-0.0589 -0.31527,0.0237 -0.466449,0.0469 -0.17088,0.002 -0.323408,0.0301 -0.48134,0.0544 -0.166905,0.006 -0.22218,0.0932 -0.381545,0.1178 -0.09302,0.0732 -0.388466,0.0492 -0.578563,0.0779 -0.166917,0.0147 -0.361594,-0.0381 -0.519857,-0.0148 -0.195347,-0.0636 -0.194281,0.0526 -0.34423,0.0745 -0.08839,0.0367 -0.420613,-0.14353 -0.615396,-0.11608 -0.191638,-0.17737 -0.318723,0.0456 -0.478472,0.0684 -0.160007,0.0233 -0.339459,-0.0584 -0.500091,-0.0355 -0.177913,-0.0815 -0.307036,0.0564 -0.466484,0.0795 -0.151304,0.0343 -0.217067,0.0897 -0.380301,0.1131 -0.08249,0.07 -0.351126,0.0769 -0.544405,0.10286 -0.134762,0.0451 -0.342267,-0.0459 -0.511569,-0.0252 -0.166266,-0.0705 -0.298605,0.058 -0.460165,0.0767 -0.14206,0.0382 -0.330898,0.0377 -0.49726,0.0551 -0.158438,0.0168 -0.28171,0.0563 -0.441171,0.0708 -0.133378,0.0394 -0.364368,-0.0459 -0.535322,-0.034 -0.177978,-0.0644 -0.334133,-0.0435 -0.487892,-0.034 -0.180301,-0.0551 -0.342658,-0.10651 -0.495338,-0.097 -0.190835,-0.11625 -0.165989,0.0665 -0.318554,0.0799 -0.05588,0.0619 -0.317398,0.053 -0.525587,0.0662 -0.09352,0.0304 -0.367521,0.0201 -0.559495,0.0227 -0.158523,0.003 -0.345974,-0.0751 -0.50705,-0.0803 -0.184496,-0.0812 -0.326428,-0.0498 -0.475824,-0.0452 -0.167117,0.005 -0.321086,-0.0667 -0.476905,-0.0929 -0.1646,-0.0276 -0.292868,-0.0489 -0.454348,-0.0865 -0.138452,-0.029 -0.297957,-0.0575 -0.467507,-0.10915 -0.127831,-0.0242 -0.386255,-0.24481 -0.556899,-0.30975 -0.164803,-0.18042 -0.224797,-0.0759 -0.348185,-0.12931 -0.132604,-0.0459 -0.345835,-0.24331 -0.499918,-0.32104 -0.152858,-0.163 -0.278184,-0.18106 -0.397039,-0.24748 -0.158955,-0.12444 -0.212534,-0.11806 -0.331934,-0.19178 -0.114881,-0.0687 -0.08546,-0.16464 -0.226745,-0.26326 0.02931,-0.10248 -0.359397,-0.26028 -0.532276,-0.39662 -0.128323,-0.10269 -0.292014,-0.27074 -0.410685,-0.37325 -0.14859,-0.16085 -0.253146,-0.26377 -0.348672,-0.35271 -0.149031,-0.17705 -0.15895,-0.15624 -0.246672,-0.24407 -0.09592,-0.10317 -0.274166,-0.32278 -0.385518,-0.44819 -0.126976,-0.18023 -0.114206,-0.15903 -0.195755,-0.26033 -0.05333,-0.0995 -0.230623,-0.31128 -0.33675,-0.46428 -0.09339,-0.14995 -0.06074,-0.23646 -0.140001,-0.37025 0.02387,-0.12834 -0.238998,-0.42649 -0.343531,-0.59499 -0.08775,-0.14144 -0.180796,-0.26267 -0.231451,-0.41326 -0.05316,-0.15805 0.05829,-0.28075 0.01475,-0.43948 0.110135,-0.14496 -0.0843,-0.35346 -0.123201,-0.53513 -0.0249,-0.15163 -0.0088,-0.30745 -0.0352,-0.46819 0.02886,-0.15059 -0.0094,-0.30442 -0.02892,-0.46873 0.02098,-0.14239 0.02536,-0.30004 0.01248,-0.4664 0.04826,-0.13671 -0.06409,-0.50635 -0.07105,-0.67557 -0.04528,-0.27106 -0.01211,-0.25441 -0.01394,-0.35578 -0.0075,-0.19286 -0.02684,-0.32466 -0.02486,-0.46517 -0.02195,-0.18756 0.0011,-0.29697 0.0082,-0.44114 0.0023,-0.16423 0.04391,-0.29605 0.05762,-0.45237 0.03982,-0.14614 0.03702,-0.32869 0.05727,-0.49299 0.02481,-0.15833 -0.0084,-0.4033 0.01643,-0.56265 -0.02922,-0.21991 0.02913,-0.29439 0.05553,-0.42846 0.0143,-0.17737 0.101149,-0.2898 0.138446,-0.44137 0.07611,-0.14293 0.04044,-0.47122 0.08408,-0.63159 -0.0083,-0.26914 0.07084,-0.23103 0.108208,-0.34172 0.05632,-0.15534 0.126338,-0.30275 0.185981,-0.45518 0.07368,-0.14112 0.08555,-0.33485 0.142578,-0.49288 0.05254,-0.14558 0.129219,-0.47424 0.185812,-0.63543 0.05352,-0.15244 0.08023,-0.33764 0.135931,-0.48913 0.02531,-0.17818 0.115946,-0.28325 0.171027,-0.42731 0.06639,-0.14547 0.07964,-0.39905 0.139291,-0.54983 0.01292,-0.22299 0.09819,-0.3327 0.149393,-0.45869 0.04905,-0.20687 0.100816,-0.25715 0.153445,-0.38353 0.05878,-0.15175 0.140484,-0.28606 0.203374,-0.43362 0.0798,-0.13881 0.111746,-0.32702 0.176066,-0.47555 0.04538,-0.17043 0.112456,-0.36225 0.174206,-0.5032 0.04492,-0.20585 0.221843,-0.20476 0.277433,-0.33057 0.175642,-0.0987 0.130505,-0.29194 0.194646,-0.43804 0.06571,-0.14598 0.173984,-0.26716 0.237603,-0.41384 0.109912,-0.12233 0.169046,-0.2709 0.23215,-0.41996 0.104147,-0.12325 0.140868,-0.28829 0.202435,-0.43912 0.07582,-0.13748 0.07585,-0.40472 0.134744,-0.55563 0.0027,-0.22778 0.05203,-0.31078 0.09894,-0.43451 0.0074,-0.19876 0.105989,-0.27109 0.15593,-0.40619 0.05887,-0.14913 0.09591,-0.33412 0.148804,-0.48285 0.03674,-0.17689 0.105978,-0.27462 0.153935,-0.41486 0.05872,-0.14521 0.09862,-0.30717 0.147544,-0.45894 0.04472,-0.15422 0.09029,-0.31587 0.135593,-0.46673 0.0393,-0.16304 0.166188,-0.25616 0.207375,-0.40476 0.122987,-0.11932 0.06305,-0.34501 0.09993,-0.5073 0.01246,-0.17421 0.02661,-0.37756 0.05584,-0.52836 -0.01255,-0.21412 0.179393,-0.22902 0.203983,-0.36237 0.158106,-0.1256 0.155247,-0.30452 0.168466,-0.4752 0.117913,-0.14026 0.0022,-0.35083 -0.01144,-0.53152 -0.01541,-0.1606 -0.02659,-0.31417 -0.0376,-0.47423 -0.01111,-0.16149 0.07892,-0.32416 0.08578,-0.48824 0.0069,-0.1661 0.01142,-0.33301 0.0151,-0.49913 0.0029,-0.16666 4.48e-4,-0.45833 0.0011,-0.6242 -0.0049,-0.25058 0.115049,-0.22781 0.113877,-0.35169 0.113326,-0.1539 -0.0047,-0.34766 -0.0095,-0.52149 -0.0044,-0.16674 -0.01511,-0.34103 -0.02249,-0.50782 -0.01168,-0.17157 -0.02483,-0.36786 -0.03458,-0.53204 -0.01811,-0.19279 0.129372,-0.30178 0.11825,-0.4551 0.136113,-0.16767 -0.02737,-0.34672 -0.04249,-0.5193 -0.01557,-0.16814 -0.04079,-0.34502 -0.05762,-0.51168 -0.02685,-0.17439 -0.06802,-0.38394 -0.08639,-0.54672 -0.05063,-0.2045 -0.0156,-0.28005 -0.03347,-0.42622 -0.0028,-0.15909 -0.05266,-0.44324 -0.07536,-0.61467 -0.02743,-0.2334 0.0356,-0.24279 0.01703,-0.37589 0.04658,-0.1541 0.0089,-0.31364 -0.01749,-0.49115 0.03213,-0.14136 -0.05718,-0.36891 -0.08601,-0.55194 -0.02787,-0.16789 0.140659,-0.31469 0.113546,-0.47993 0.163426,-0.16632 -0.110916,-0.51704 -0.142476,-0.69928 -0.06987,-0.26619 -0.0099,-0.20525 -0.03005,-0.31887 -0.0013,-0.1527 0.01239,-0.30446 -0.01966,-0.47904 0.04118,-0.13952 0.08523,-0.34825 0.05024,-0.5329 0.119219,-0.16077 -0.08058,-0.51453 -0.116438,-0.69666 -0.0336,-0.26623 0.0066,-0.19721 -0.01668,-0.31309 0.01649,-0.14464 -0.0121,-0.33453 -0.04895,-0.51365 0.02426,-0.15167 -0.07631,-0.35655 -0.113244,-0.53247 -0.03729,-0.16601 -0.06649,-0.32217 -0.100637,-0.48375 -0.03283,-0.16179 -0.0069,-0.29939 -0.04119,-0.46235 0.02527,-0.14806 -0.08576,-0.38974 -0.122346,-0.56468 -0.04309,-0.18796 -0.01161,-0.27183 -0.042,-0.41971 0.01474,-0.14796 -0.105005,-0.39044 -0.139617,-0.56268 -0.06337,-0.18982 0.0041,-0.28525 -0.02365,-0.4288 0.02946,-0.16298 -0.08306,-0.35299 -0.113706,-0.518 -0.04791,-0.17452 -0.03915,-0.29003 -0.06559,-0.44157 -0.01237,-0.15183 0.09746,-0.31451 0.07096,-0.47986 0.12617,-0.15837 -0.06166,-0.35562 -0.08958,-0.53069 -0.03051,-0.16392 -0.09595,-0.45675 -0.119812,-0.61483 -0.06299,-0.25358 -0.04089,-0.23758 -0.05611,-0.34839 -0.02921,-0.16984 -0.0715,-0.34855 -0.08857,-0.50199 -0.04711,-0.18612 0.06264,-0.27455 0.05207,-0.42015 0.08032,-0.15075 -0.04296,-0.36353 -0.05354,-0.53497 -0.02757,-0.17578 -0.01591,-0.3087 -0.01927,-0.46323 -0.0029,-0.16161 -0.03194,-0.37362 -0.02669,-0.53832 -0.02382,-0.20276 -0.0086,-0.43111 0.01275,-0.57805 0.02262,-0.15544 0.0626,-0.21818 0.09051,-0.39439 0.02578,-0.16273 0.01245,-0.39612 0.05919,-0.54613 -0.0082,-0.21146 0.08426,-0.31603 0.141952,-0.43975 0.05285,-0.18275 0.109754,-0.45891 0.186226,-0.57704 0.03853,-0.29524 0.179348,-0.15564 0.246191,-0.23734 0.156495,-0.0999 0.208031,-0.23168 0.321288,-0.33575 0.12178,-0.10868 0.21841,-0.25173 0.35051,-0.34502 0.106569,-0.13596 0.279286,-0.17126 0.423887,-0.24966 0.148391,-0.0688 0.376178,-0.13379 0.525279,-0.19867 0.214255,-0.0416 0.190175,-0.22694 0.314027,-0.27513 0.1007,-0.1838 0.363333,-0.0785 0.528381,-0.11983 0.187577,-0.005 0.486101,-0.0636 0.627843,-0.0972 0.309311,-0.0195 0.264746,-0.0467 0.341084,-0.0743 0.130643,-0.0473 0.327261,-0.096 0.522371,-0.14922 0.151826,-0.0414 0.270294,-0.12525 0.421524,-0.16413 0.125263,-0.0844 0.310467,-0.0872 0.468599,-0.12468 0.146482,-0.0436 0.304378,-0.075 0.456883,-0.10801 0.150248,-0.037 0.290512,-0.0905 0.44145,-0.12006 0.141749,-0.0567 0.364002,-0.0521 0.517299,-0.0787 0.190776,-0.0169 0.225873,-0.1082 0.358169,-0.12874 0.122082,-0.0885 0.324181,-0.0468 0.486224,-0.0668 0.152574,-0.0181 0.293979,-0.0773 0.446166,-0.0921 0.144912,-0.057 0.333482,-0.0168 0.488968,-0.0266 0.169228,0.001 0.28977,-0.0191 0.434858,-0.025 0.152707,-0.009 0.411945,-0.008 0.565511,-0.0109 0.227249,5.4e-4 0.41563,0.0188 0.531353,0.0176 0.280581,0.022 0.249175,0.0359 0.337906,0.0337 0.205236,0.0351 0.261935,-0.0408 0.399619,-0.0542 0.132436,-0.0129 0.29814,4.9e-4 0.490302,10e-4 z m -2.23237,21.82871 c -0.0048,0.15959 0.09022,0.35499 0.08067,0.51396 0.100196,0.18858 0.03593,0.33003 0.02276,0.47855 0.04266,0.18317 -0.06618,0.11968 -0.08378,0.27008 -0.06253,0.0346 -0.07656,0.40511 -0.109173,0.62232 -0.04673,0.13677 -0.06809,0.26524 -0.09636,0.43111 -0.04666,0.11076 -0.06278,0.35076 -0.09599,0.52837 -0.03022,0.15394 0.01298,0.3599 -0.01834,0.51755 0.04368,0.19203 0.06571,0.31437 0.03476,0.46095 0.09143,0.18004 -0.04059,0.32855 -0.07696,0.48707 -0.0076,0.16636 -0.120476,0.16307 -0.158399,0.3178 -0.09611,0.0496 -0.02912,0.43018 -0.07879,0.62903 0.03095,0.18525 -0.118254,0.23429 -0.156664,0.38382 -0.08681,0.10635 -0.0479,0.36723 -0.09131,0.53936 0.0018,0.17553 -0.09341,0.21902 -0.131165,0.36927 -0.06225,0.0965 -0.09112,0.35332 -0.133957,0.53363 -0.03961,0.15252 -0.03383,0.31561 -0.06872,0.47252 0.0042,0.16113 0.02433,0.36626 -0.0098,0.52399 0.06197,0.20023 -0.07469,0.28759 -0.11022,0.43334 -0.0463,0.14953 0.02271,0.35386 -0.01478,0.50967 0.0627,0.19489 -0.09786,0.29094 -0.144684,0.43926 -0.06206,0.13743 -0.09181,0.3073 -0.127469,0.46218 -0.03616,0.15704 -0.06641,0.30966 -0.07664,0.46759 -0.01059,0.16352 -0.04847,0.28835 -0.04485,0.45937 -0.03053,0.14253 0.03247,0.37823 0.05332,0.56953 0.03499,0.17665 0.03039,0.1808 0.06271,0.35576 0.02782,0.0596 0.230313,0.50814 0.294894,0.73661 0.175269,0.19359 0.02971,0.15739 0.07676,0.29763 0.01515,0.0794 0.263168,0.44789 0.350007,0.64838 0.172895,0.16719 0.135803,0.27539 0.198224,0.40163 0.08871,0.1544 0.123623,0.23124 0.200496,0.36144 0.06834,0.10146 0.287423,0.33483 0.387897,0.46748 0.177738,0.13832 0.191819,0.21991 0.265595,0.30181 0.134312,0.13171 0.156799,0.14115 0.246114,0.21219 0.100534,0.0529 0.236948,0.1512 0.38284,0.21114 0.128755,0.0529 0.265938,0.0663 0.426317,0.0765 0.225252,0.0143 0.359369,-0.0188 0.421616,-0.0916 0.06581,-0.0703 0.05172,-0.22303 6.21e-4,-0.35726 -0.05258,-0.16744 -0.09388,-0.26661 -0.19922,-0.4162 -0.112159,-0.15928 -0.315746,-0.40602 -0.439446,-0.58023 -0.09758,-0.13743 -0.227663,-0.46236 -0.310488,-0.60439 -0.09192,-0.27399 -0.101109,-0.18601 -0.147271,-0.27587 -0.07305,-0.14929 -0.03155,-0.24301 -0.09087,-0.38679 0.03685,-0.12874 0.02106,-0.28953 -0.03335,-0.46311 0.09769,-0.12481 -0.141198,-0.45388 -0.184502,-0.63545 -0.06488,-0.21683 -0.08058,-0.30688 -0.103516,-0.42703 -0.05174,-0.20029 -0.09716,-0.42495 -0.115523,-0.55743 -0.06474,-0.26566 -0.02613,-0.21018 -0.0359,-0.31416 -0.0147,-0.16341 0.08591,-0.3043 0.08181,-0.46495 0.106435,-0.15047 0.194843,-0.31353 0.196448,-0.48511 0.20258,-0.14752 -0.03419,-0.47815 -0.04037,-0.65942 -0.03538,-0.24843 0.03601,-0.2169 0.03407,-0.33829 0.04131,-0.14159 0.127442,-0.33296 0.12857,-0.51234 0.136092,-0.15026 0.04006,-0.30013 0.0222,-0.48187 -0.01563,-0.15893 -0.09434,-0.36936 -0.05629,-0.53476 0.03523,-0.15315 0.07164,-0.30578 0.104248,-0.462 0.03504,-0.15456 0.202963,-0.30398 0.232306,-0.46318 0.167694,-0.14464 0.05304,-0.32075 0.07634,-0.47813 0.02188,-0.16806 0.04787,-0.31675 0.06553,-0.47736 0.02157,-0.16122 0.0283,-0.35876 0.03958,-0.5235 0.006,-0.18369 0.04378,-0.29505 0.04808,-0.44825 0.03042,-0.15513 -0.0033,-0.34586 -0.0071,-0.51236 -0.01216,-0.16935 0.02145,-0.28916 0.0099,-0.4456 0.0201,-0.14322 -0.06354,-0.38177 -0.08719,-0.5499 -0.0528,-0.18404 -0.07236,-0.33978 -0.09887,-0.47772 -0.05514,-0.19259 -0.05165,-0.26288 -0.08267,-0.39064 -0.03464,-0.15009 -0.06277,-0.28611 -0.109007,-0.43115 -0.03243,-0.13575 -0.123091,-0.49736 -0.18504,-0.64399 -0.06307,-0.30048 -0.08499,-0.17354 -0.130801,-0.2389 -0.07801,-0.11132 -0.157514,-0.19743 -0.259205,-0.36194 z" />
    <path
       style="fill:#ffffff;stroke:#000000;stroke-width:0.0686193;stroke-linejoin:round"
       d="m 167.23677,210.32177 c -0.73548,-0.25672 -1.45566,-0.4213 -1.60041,-0.36576 -0.14474,0.0556 -1.58549,0.0213 -3.20165,-0.0762 -3.86171,-0.23288 -7.66563,-0.89256 -9.39824,-1.62986 -0.85673,-0.36458 -1.4932,-0.53072 -1.76845,-0.46164 -0.54683,0.13726 -3.15065,-0.34114 -4.9893,-0.91667 -0.77903,-0.24386 -1.71912,-0.44337 -2.08908,-0.44337 -0.36997,0 -0.95565,-0.0812 -1.30151,-0.18036 -1.51874,-0.43557 -4.26294,-0.90945 -6.35863,-1.09803 -2.14381,-0.19292 -4.71259,-0.64401 -9.7132,-1.70573 -1.19827,-0.25439 -2.46577,-0.4632 -2.81667,-0.464 -0.3509,-7.8e-4 -1.0862,-0.16623 -1.634,-0.36763 -1.28684,-0.47315 -5.63861,-0.67321 -8.2582,-0.37965 -0.99855,0.11191 -2.5917,0.29062 -3.54032,0.39713 -0.94863,0.10652 -2.78687,0.26513 -4.08499,0.35248 -1.29812,0.0873 -2.97297,0.25572 -3.72189,0.37416 -0.74891,0.11845 -2.30121,0.22555 -3.449544,0.23798 -1.148336,0.0124 -2.196489,0.092 -2.329227,0.17686 -0.232954,0.14887 -1.773858,0.33804 -5.205313,0.63896 -0.898698,0.0788 -1.897678,0.24563 -2.219953,0.37068 -0.795388,0.30863 -2.449065,0.1599 -3.725858,-0.33511 -0.981734,-0.38061 -1.078254,-0.38749 -1.622711,-0.11589 -0.963996,0.48091 -4.765978,1.05404 -7.228225,1.08962 -2.546237,0.0368 -4.593684,0.29933 -5.809766,0.74494 -0.593383,0.21745 -1.412476,0.29803 -2.992627,0.29441 -1.233199,-0.003 -2.273205,0.076 -2.400886,0.18196 -0.157702,0.13088 -0.680728,0.0666 -1.743968,-0.21425 -1.421183,-0.37544 -1.554819,-0.38252 -2.081007,-0.11043 -0.434907,0.22491 -0.863128,0.26595 -1.89017,0.18112 -1.133672,-0.0936 -1.544573,-0.0391 -2.809592,0.37284 -1.966309,0.6403 -3.088233,0.80123 -4.362291,0.62573 -0.745344,-0.10265 -1.321582,-0.0707 -1.962863,0.10872 -1.742483,0.48764 -4.236437,0.68724 -5.836748,0.46712 -0.813682,-0.11191 -1.54898,-0.18526 -1.633997,-0.16302 -0.08501,0.0222 -0.740222,-0.0629 -1.456018,-0.18932 -1.144017,-0.20198 -1.355282,-0.19448 -1.746523,0.0618 -0.694728,0.45522 -4.23606,0.5832 -5.814112,0.21012 -0.68022,-0.1608 -1.578054,-0.29238 -1.995186,-0.29238 -0.417131,0 -1.780534,-0.21026 -3.029782,-0.46723 -1.921762,-0.39532 -2.474714,-0.59093 -3.592529,-1.27089 -0.72664,-0.44201 -1.474954,-0.80365 -1.662918,-0.80365 -0.187964,0 -0.859788,-0.35912 -1.49294,-0.79803 -0.633153,-0.43889 -1.728951,-1.12747 -2.435108,-1.53014 -0.737516,-0.42056 -1.466524,-0.99863 -1.712995,-1.35833 -0.23599,-0.34441 -0.883723,-0.89726 -1.439406,-1.22856 -2.378181,-1.41791 -7.8623434,-7.67334 -8.4438002,-9.63132 -0.1370577,-0.46154 -0.7163752,-1.54115 -1.2873723,-2.39916 l -1.0381765,-1.56 0.1154295,-1.18829 c 0.088829,-0.91446 0.044955,-1.34481 -0.1903871,-1.86747 -0.2317596,-0.51471 -0.3367427,-1.49254 -0.4335255,-4.03795 -0.07024,-1.84733 -0.2223922,-4.49158 -0.3381161,-5.87613 -0.1574126,-1.88333 -0.1587037,-2.86647 -0.00513,-3.90344 0.1129046,-0.76234 0.267244,-2.52987 0.3429764,-3.92785 0.1006781,-1.85846 0.2410786,-2.82878 0.5222565,-3.60937 0.2115087,-0.58717 0.4403031,-1.69012 0.5084321,-2.45099 0.068129,-0.76087 0.2237617,-1.5468 0.3458503,-1.74651 0.389745,-0.63754 1.1279135,-2.82504 1.8992337,-5.62821 0.4121421,-1.49783 0.9065626,-3.09098 1.0987122,-3.54033 0.19215,-0.44935 0.476458,-1.3889 0.631797,-2.08788 0.303276,-1.36467 0.919778,-3.02617 1.717848,-4.62966 0.273343,-0.5492 0.763039,-1.81555 1.088213,-2.81411 0.475799,-1.4611 0.726616,-1.94625 1.284717,-2.48505 0.38142,-0.36822 0.774904,-0.96435 0.874407,-1.32472 0.0995,-0.36037 0.550211,-1.28514 1.001572,-2.05504 1.253151,-2.13754 1.852003,-3.6066 2.162054,-5.30383 0.155357,-0.85042 0.420332,-1.91252 0.588834,-2.36022 0.168502,-0.44769 0.835889,-2.40714 1.483082,-4.35432 0.647194,-1.94718 1.404844,-3.98968 1.683667,-4.53888 0.392452,-0.77302 0.552219,-1.44123 0.707376,-2.95854 0.179362,-1.75402 0.257872,-2.03146 0.747132,-2.64028 0.823583,-1.02484 1.148126,-2.49224 0.876837,-3.96457 -0.169117,-0.91783 -0.169157,-1.67345 -1.78e-4,-3.38884 0.119609,-1.21419 0.216792,-2.8691 0.215964,-3.67756 -9.62e-4,-0.940265 0.09581,-1.665024 0.268571,-2.011324 0.232728,-0.466511 0.240769,-0.944 0.05815,-3.45272 -0.193127,-2.653088 -0.183153,-3.002821 0.112461,-3.942654 0.190747,-0.606433 0.280944,-1.271092 0.218936,-1.613329 -0.66894,-3.691985 -1.181547,-8.584594 -1.174548,-11.210579 0.0025,-0.952798 -0.08465,-2.063861 -0.193748,-2.46903 -0.165773,-0.615632 -0.139115,-0.908887 0.162252,-1.784824 0.386091,-1.122193 0.356912,-1.470325 -0.23565,-2.811469 -0.326879,-0.739825 -0.346699,-1.056283 -0.231023,-3.68849 0.101026,-2.298817 0.07276,-3.050661 -0.140215,-3.729623 -0.146712,-0.467715 -0.313869,-1.604363 -0.37146,-2.525884 -0.05759,-0.92152 -0.278532,-2.346055 -0.490977,-3.165633 -0.212445,-0.81958 -0.445757,-2.108104 -0.518472,-2.863388 -0.131266,-1.363447 -0.515342,-3.55772 -1.018943,-5.821348 -0.1444,-0.64906 -0.261859,-1.529497 -0.261021,-1.956529 8.39e-4,-0.427031 -0.17215,-1.44643 -0.38442,-2.265331 -0.353408,-1.363395 -0.366832,-1.611773 -0.159229,-2.9463 0.195761,-1.25841 0.187679,-1.57236 -0.0592,-2.299518 -0.157251,-0.463173 -0.502,-2.055943 -0.766109,-3.539489 -0.416788,-2.341176 -0.452545,-2.821607 -0.270792,-3.638306 0.153963,-0.691821 0.1567,-1.136683 0.01034,-1.680228 -0.301621,-1.120135 -0.316594,-6.537463 -0.02362,-8.544466 0.275698,-1.888628 1.526978,-5.85635 1.884286,-5.97494 0.123284,-0.04092 1.000301,-0.823591 1.948927,-1.739273 1.584216,-1.5292 1.861562,-1.718049 3.403268,-2.317338 1.180677,-0.458951 1.86012,-0.84504 2.290878,-1.301777 0.552681,-0.586012 0.706194,-0.649314 1.574627,-0.649314 1.764369,0 4.902899,-0.6998158 7.172653,-1.5993266 1.010469,-0.4004517 6.868981,-1.8502224 7.476735,-1.8502224 0.210662,0 0.764218,-0.1633996 1.230125,-0.3631103 0.465907,-0.1997107 1.162059,-0.3631104 1.547005,-0.3631104 0.384948,0 1.217182,-0.1199649 1.84941,-0.2665886 0.910928,-0.2112583 2.599523,-0.2639004 8.135862,-0.2536364 11.50336,0.021327 17.237009,0.3307673 20.968587,1.1316594 0.700354,0.150314 1.609953,0.2281533 2.021328,0.1729762 0.411375,-0.055177 1.023006,-0.00978 1.359179,0.1008793 0.571927,0.1882664 2.800786,0.6400948 5.967099,1.2096354 2.034513,0.3659579 2.608734,0.5684132 4.991494,1.7598724 3.060884,1.530543 4.538767,2.40603 5.90427,3.497644 0.650402,0.519951 1.451242,1.084311 1.779652,1.254133 0.96112,0.497018 1.87413,1.573659 2.88045,3.396713 l 0.94068,1.704129 0.10246,3.812659 c 0.15776,5.869978 0.129,21.270531 -0.0424,22.688203 -0.0881,0.728774 -0.0822,1.651993 0.0138,2.178662 0.10681,0.585648 0.0982,1.370506 -0.0239,2.184857 -0.28134,1.876014 -0.14054,6.524367 0.22774,7.518867 0.16321,0.440727 0.3685,0.890076 0.4562,0.998553 0.0877,0.108476 0.25498,0.663074 0.37174,1.232442 0.16269,0.79334 0.1622,1.128798 -0.002,1.435753 -0.14654,0.273798 -0.18447,1.066477 -0.11989,2.505113 0.052,1.157516 0.006,3.253139 -0.10271,4.65694 -0.17636,2.282646 -0.1628,2.675954 0.12834,3.721881 0.17905,0.643234 0.38891,1.251215 0.46637,1.35107 0.2805,0.361622 0.55072,2.103588 0.37674,2.428666 -0.38944,0.727675 -0.97588,7.714595 -0.98476,11.732639 -0.007,3.204999 0.23407,7.264224 0.51775,8.714649 0.13671,0.698987 0.29851,2.128734 0.35955,3.177213 0.14616,2.51058 0.39805,4.52173 0.76176,6.0821 0.76915,3.29976 3.97031,9.1309 7.3257,13.34431 1.88522,2.36729 4.95959,5.46871 5.80625,5.85734 0.34949,0.16043 0.92139,0.59015 1.27088,0.95494 0.3495,0.36479 1.1665,1.0825 1.81556,1.5949 0.64906,0.5124 1.71115,1.39309 2.36021,1.95709 1.69577,1.47354 5.3113,4.11924 6.8991,5.04849 0.74892,0.4383 1.48421,0.90061 1.634,1.02736 0.64005,0.54161 9.91908,5.02867 11.46702,5.5451 0.93265,0.31115 1.77743,0.62764 1.87728,0.70331 0.0999,0.0757 0.69333,0.1885 1.31882,0.25075 0.6255,0.0623 1.31995,0.23076 1.54322,0.37446 0.69154,0.44508 2.71558,1.16975 3.80251,1.36143 0.56999,0.10051 1.34814,0.34182 1.72924,0.53624 0.3811,0.19442 1.22194,0.45463 1.86855,0.57824 0.6466,0.12362 1.33904,0.31082 1.53875,0.41602 0.19971,0.1052 1.05756,0.24781 1.90633,0.31692 1.18772,0.0967 2.12875,0.3378 4.08499,1.0466 4.24865,1.5394 7.52137,2.4708 8.44232,2.40266 1.29735,-0.096 1.6619,-0.0771 2.72333,0.14078 0.5492,0.11275 1.40705,0.28788 1.90633,0.38917 0.49927,0.10129 2.02819,0.55111 3.39759,0.99959 1.36941,0.44849 2.71745,0.81704 2.99566,0.81901 0.27822,0.002 1.20029,0.25101 2.04906,0.55343 1.83502,0.6538 3.61785,0.88852 5.35299,0.70472 1.06134,-0.11242 1.37205,-0.0792 1.90633,0.20393 0.95702,0.5071 4.39315,1.75994 5.19796,1.8952 0.388,0.0652 1.20346,0.29041 1.81211,0.50043 1.08655,0.37494 1.12544,0.37594 2.14453,0.0554 1.36959,-0.43078 1.96853,-0.26996 5.3727,1.44266 3.32951,1.67505 4.58491,2.18011 6.37517,2.56482 1.18652,0.25497 1.59068,0.27149 2.35058,0.0961 0.76057,-0.17556 1.00761,-0.16534 1.44283,0.0597 0.33098,0.17115 1.03528,0.27156 1.90484,0.27156 0.8087,0 1.5826,0.10295 1.86997,0.24876 0.26962,0.13681 0.89875,0.30471 1.39803,0.3731 0.87667,0.12009 3.64297,0.74359 5.73255,1.29206 0.74312,0.19506 1.24832,0.22154 1.90086,0.0996 0.67446,-0.126 1.00874,-0.10398 1.38643,0.0913 0.59201,0.30614 2.83856,0.79912 3.6555,0.80215 0.318,0.001 1.38302,0.20246 2.36669,0.4473 1.70342,0.42397 1.92368,0.43729 4.62965,0.28 1.56265,-0.0908 3.33136,-0.2853 3.93049,-0.43216 0.59913,-0.14687 2.00786,-0.40116 3.13048,-0.5651 1.12263,-0.16393 2.79748,-0.48965 3.72189,-0.72382 1.87644,-0.47534 1.80019,-0.48911 3.75114,0.67737 1.92146,1.14883 2.20552,2.22947 1.32352,5.0347 -0.29826,0.94862 -0.59448,1.95483 -0.6583,2.23601 -0.14292,0.62982 -1.07982,1.0692 -2.32015,1.08809 -0.74543,0.0113 -0.99045,-0.0915 -1.90633,-0.80014 -0.65414,-0.50615 -1.53076,-0.96766 -2.32181,-1.22234 -2.17908,-0.70158 -3.74663,-1.33533 -4.86151,-1.96549 -0.59065,-0.33386 -1.21135,-0.60702 -1.37933,-0.60702 -0.16797,0 -0.91583,-0.29631 -1.66193,-0.65848 -1.7281,-0.83883 -3.92944,-1.29663 -7.28015,-1.51402 -1.49235,-0.0968 -2.92384,-0.28542 -3.26799,-0.43055 -1.35689,-0.57226 -1.98707,-0.68945 -3.01605,-0.56088 -0.92437,0.11549 -1.14522,0.23239 -2.03979,1.07966 -0.55177,0.52258 -1.33,1.11493 -1.72943,1.31633 -1.43956,0.72589 -1.58998,1.20202 -0.79495,2.51633 0.60133,0.99405 1.53684,1.27054 7.04191,2.08116 1.67009,0.24592 8.02773,2.10458 10.29737,3.01044 0.80079,0.31961 1.32873,0.419 1.88572,0.35501 0.62463,-0.0718 1.00477,0.0271 1.97431,0.51333 1.51622,0.76044 2.43609,1.05466 3.47015,1.10993 0.44935,0.024 1.38714,0.21478 2.08396,0.42392 2.24314,0.67323 4.49965,0.5109 7.70777,-0.55447 1.00688,-0.33437 1.28216,-0.35967 1.9971,-0.18355 0.45609,0.11235 1.09593,0.19321 1.42187,0.17968 0.32593,-0.0135 0.6201,0.008 0.65373,0.0485 0.43611,0.52158 2.04224,3.26871 2.23042,3.81492 0.26186,0.76006 0.23457,1.00351 -0.32161,2.86833 -0.44929,1.50641 -0.97923,2.3478 -1.57254,2.49671 -0.91709,0.23018 -2.5987,-0.27382 -3.63061,-1.08814 -1.11253,-0.87794 -1.36949,-1.02382 -2.90114,-1.64697 -0.62506,-0.2543 -1.58698,-0.79516 -2.13758,-1.20192 -0.87951,-0.64972 -1.10531,-0.73408 -1.85918,-0.69455 -1.01713,0.0533 -2.84459,-0.26585 -4.8523,-0.84752 -2.30313,-0.66727 -3.95412,-0.85461 -7.27593,-0.82561 -5.16782,0.0451 -7.74066,-0.39009 -9.46761,-1.60148 -0.58555,-0.41073 -1.19409,-0.7468 -1.3523,-0.7468 -0.40942,0 -1.52742,-0.48956 -2.32828,-1.01954 -0.37635,-0.24906 -1.06689,-0.94554 -1.53454,-1.54773 l -0.85024,-1.09488 -1.03209,0.10112 c -3.60679,0.35342 -3.66462,0.38385 -3.66462,1.92866 0,1.421 0.37415,1.79326 2.3445,2.33269 0.84013,0.23 2.43327,0.76683 3.54032,1.19296 1.10705,0.42613 2.38048,0.83207 2.82983,0.90211 0.44935,0.07 1.2255,0.35559 1.72478,0.63458 0.49927,0.27899 1.31627,0.65827 1.81555,0.84285 0.49927,0.18457 1.64307,0.71924 2.54177,1.18814 2.20497,1.15047 4.29344,1.62158 9.22177,2.08023 3.201,0.2979 6.2466,0.97566 7.75364,1.72549 1.20616,0.60012 2.78625,2.22009 3.30145,3.38476 0.32176,0.72738 0.35885,1.05968 0.25596,2.29339 -0.10841,1.29977 -0.18268,1.51562 -0.74953,2.17784 -0.38777,0.45302 -0.62922,0.92704 -0.62922,1.23527 0,1.26849 -0.53824,1.74044 -2.68513,2.35439 -0.63918,0.18279 -1.27584,0.42671 -1.41482,0.54203 -0.40706,0.33784 -1.09111,0.0426 -1.70916,-0.7378 -1.05277,-1.32922 -2.41278,-3.52481 -3.03693,-4.90281 -1.14376,-2.5252 -1.39387,-2.93811 -2.22109,-3.66707 -1.20518,-1.06199 -1.55284,-1.18798 -3.27573,-1.18706 -1.25197,6.6e-4 -1.83447,-0.10195 -3.08644,-0.54373 -3.99991,-1.41145 -10.63036,-4.58023 -16.41549,-7.84518 -1.39184,-0.78551 -5.48473,-2.00954 -6.70728,-2.00589 -0.73194,0.002 -2.47651,0.9916 -2.47651,1.40453 0,0.49509 0.93429,2.80775 1.38329,3.42414 0.30888,0.424 0.71731,0.65867 1.647,0.94629 3.78417,1.17073 4.9093,1.46432 5.2601,1.37258 0.41099,-0.10747 1.59224,0.62947 5.65763,3.52963 2.88494,2.05807 4.61705,3.02885 6.26405,3.51075 l 1.4211,0.4158 0.32435,-0.43 c 0.29394,-0.38969 0.38025,-0.41049 0.92081,-0.22206 0.32806,0.11437 1.11684,0.20794 1.75283,0.20794 1.50171,0 2.64192,0.58096 3.79951,1.93594 1.21617,1.42354 1.52612,2.11724 1.52492,3.41293 -0.001,1.62031 -0.2652,2.38307 -0.94029,2.71986 -0.3118,0.15554 -0.64895,0.28281 -0.74921,0.28281 -0.10025,0 -0.62382,0.34065 -1.16349,0.75701 -0.77143,0.59516 -1.16323,1.09943 -1.83233,2.3584 -0.4681,0.88076 -0.97364,1.64188 -1.12343,1.69137 -0.14978,0.0495 -0.72168,0.13985 -1.27088,0.20076 -0.54921,0.0609 -1.04469,0.13926 -1.10106,0.17406 -0.23586,0.14568 -3.45538,-0.83132 -4.09965,-1.24409 -1.5497,-0.99285 -2.94687,-3.09228 -3.42235,-5.14249 -0.33108,-1.42755 -0.59829,-1.96049 -1.60148,-3.19407 -0.42798,-0.52625 -0.93737,-1.2284 -1.13196,-1.5603 -0.53303,-0.90914 -3.09695,-2.34923 -5.70969,-3.20699 -0.54921,-0.1803 -1.73385,-0.67243 -2.63255,-1.0936 -0.8987,-0.42119 -2.48963,-1.1203 -3.53539,-1.5536 -1.33463,-0.55297 -2.38649,-1.15559 -3.52881,-2.02167 -1.86872,-1.4168 -2.23943,-1.49291 -3.70772,-0.76124 -1.1135,0.55489 -1.48317,1.1477 -1.48277,2.37785 3.9e-4,1.21494 0.46765,2.0482 1.45216,2.58967 0.68208,0.37513 1.11678,0.45985 2.63255,0.51295 4.61262,0.16166 9.33545,2.25176 12.23275,5.41367 1.46264,1.59621 2.25951,3.25456 2.75196,5.72714 l 0.38518,1.93405 -0.50973,1.04102 c -0.5274,1.07709 -3.5766,4.78104 -4.35665,5.29215 -0.34941,0.22894 -0.72012,0.26667 -1.758,0.17894 -2.65205,-0.22418 -4.70638,-1.26389 -7.02074,-3.55327 -0.94863,-0.93838 -2.14128,-2.02136 -2.65034,-2.40658 -0.50907,-0.38525 -1.27891,-1.11949 -1.71078,-1.63166 -1.52521,-1.80878 -3.84227,-2.35355 -5.83306,-1.37141 -0.5343,0.2636 -1.43766,0.8475 -2.00744,1.29755 -0.81699,0.64532 -1.07992,0.98151 -1.2439,1.59045 -0.42241,1.56871 -1.0314,2.47732 -2.12905,3.17649 -0.57075,0.36356 -1.52675,1.05519 -2.12443,1.53699 -0.74543,0.60087 -1.25859,0.87849 -1.63399,0.88395 -0.30102,0.004 -0.8741,0.13257 -1.27352,0.28485 -1.87347,0.71429 -3.05745,1.01836 -4.90199,1.25895 -2.57299,0.33561 -3.47444,0.33 -4.91,-0.0306 -0.93542,-0.23497 -1.27537,-0.25154 -1.68426,-0.0822 -0.29892,0.12382 -1.90593,0.24498 -3.85812,0.29085 -1.8402,0.0433 -3.91772,0.12177 -4.6167,0.17444 -1.05916,0.0798 -1.49367,0.018 -2.60811,-0.37095 z M 60.80733,146.24339 c 0.657317,-0.65732 0.08868,-2.36164 -1.493109,-4.4752 -0.549621,-0.73439 -1.383859,-2.1114 -1.853866,-3.06003 -0.7767,-1.56763 -0.863387,-1.87364 -0.951492,-3.35877 -0.0703,-1.18502 -0.234935,-1.9832 -0.599162,-2.90488 -0.654442,-1.65608 -1.330447,-5.02269 -1.174961,-5.85151 0.06521,-0.34758 0.398668,-1.32677 0.741025,-2.17599 l 0.622469,-1.54403 -0.296309,-1.11478 c -0.28722,-1.08059 -0.283448,-1.1621 0.123042,-2.658 0.230642,-0.84877 0.40721,-1.84959 0.392371,-2.22405 -0.165304,-4.17165 -0.18906,-3.96522 0.638178,-5.54534 0.591853,-1.13052 0.757344,-1.63711 0.733851,-2.24642 -0.01668,-0.4327 0.07832,-1.76712 0.211125,-2.96538 0.132802,-1.19827 0.265485,-3.24076 0.294849,-4.53888 0.04765,-2.106322 -0.01344,-2.682478 -0.567826,-5.355882 -0.821172,-3.959878 -1.638654,-6.86084 -2.066463,-7.333163 -0.190762,-0.210613 -0.548963,-0.628032 -0.796002,-0.927598 -0.247036,-0.299566 -0.511027,-0.48294 -0.586641,-0.407499 -0.07562,0.07544 -0.04118,0.769891 0.07653,1.54322 0.264163,1.73552 0.27144,2.816825 0.02064,3.067621 -0.105033,0.105034 -0.304058,0.877097 -0.442274,1.715697 -0.138218,0.838598 -0.381082,2.13191 -0.5397,2.874026 -0.280982,1.314612 -0.415625,5.454988 -0.189302,5.821178 0.138474,0.22406 -0.326641,1.5999 -0.807485,2.3886 -0.270684,0.44399 -0.370864,0.92058 -0.37136,1.76669 -5.03e-4,0.85875 -0.09922,1.31812 -0.381348,1.77461 -0.212071,0.34314 -0.448958,1.15673 -0.534861,1.83698 -0.08481,0.67158 -0.278736,1.46973 -0.430952,1.77367 -0.443565,0.88569 -0.800317,2.93584 -0.851625,4.89404 -0.02705,1.03232 -0.1506,2.02705 -0.286396,2.30581 -0.131353,0.26964 -0.238825,1.0637 -0.238825,1.76457 0,0.9121 -0.101293,1.46942 -0.356369,1.96074 -0.446842,0.86068 -0.847841,2.57957 -1.080802,4.63283 -0.236837,2.08746 0.09977,4.21115 1.000378,6.31146 0.363951,0.84877 0.690379,1.76064 0.725395,2.02638 0.03502,0.26574 0.358784,1.00104 0.719485,1.634 0.880663,1.54538 1.061902,1.88384 1.659387,3.09881 0.281347,0.57212 1.216366,1.84066 2.077818,2.81898 2.154241,2.4465 3.654417,3.2313 5.780579,3.02404 0.446969,-0.0436 0.93297,-0.19952 1.080004,-0.34655 z"
       id="path2"
       transform="matrix(0.26458333,0,0,0.26458333,47.019914,109.88987)" />
  </g>
</svg>
